<mxfile host="Electron" modified="2024-01-11T09:56:14.808Z" agent="Mozilla/5.0 (Macintosh; Intel Mac OS X 10_15_7) AppleWebKit/537.36 (KHTML, like Gecko) draw.io/22.1.16 Chrome/120.0.6099.109 Electron/28.1.0 Safari/537.36" etag="F9NnLzocXVXSEt3s9hau" version="22.1.16" type="device">
  <diagram name="Page-2" id="KucH217mcmzpdiHIIb56">
    <mxGraphModel dx="830" dy="447" grid="1" gridSize="10" guides="1" tooltips="1" connect="1" arrows="1" fold="1" page="1" pageScale="1" pageWidth="827" pageHeight="1169" math="1" shadow="0">
      <root>
        <mxCell id="0" />
        <mxCell id="1" value="Flowchart" parent="0" />
        <mxCell id="CfgrEksahoWtLOV5E5xf-113" value="&lt;span style=&quot;orphans: 2; text-indent: 0px; widows: 2; text-decoration-thickness: initial; text-decoration-style: initial; text-decoration-color: initial; float: none; display: inline !important; -webkit-text-stroke-width: 0px; word-spacing: 0px; text-transform: none; letter-spacing: normal; font-weight: 400; font-variant-caps: normal; font-variant-ligatures: normal; font-style: normal; font-family: Arial;&quot;&gt;&lt;font color=&quot;#505050&quot; style=&quot;&quot;&gt;&lt;font style=&quot;font-size: 8px;&quot;&gt;Cancer Cells&lt;/font&gt;&lt;br&gt;&lt;/font&gt;&lt;/span&gt;" style="text;whiteSpace=wrap;html=1;fontSize=11.2;fontColor=#7EA6E0;labelBackgroundColor=none;strokeWidth=0;fillColor=none;strokeColor=none;align=left;" parent="1" vertex="1">
          <mxGeometry x="575" y="161.15" width="50" height="20" as="geometry" />
        </mxCell>
        <mxCell id="WBS0zaE24uSwDYQaIOTp-59" value="&lt;div style=&quot;font-size: 8px;&quot;&gt;&lt;/div&gt;" style="verticalAlign=middle;align=center;vsdxID=38;fillColor=none;gradientColor=none;shape=stencil(vVTbjoMgEP0aHiUIG6vPvfwH2aKSpWJG2rp/v5jRXaGyT41vcznMzDkZhojj0MpeEc4GB/ZLPfXVtUScCOe6axVo5y0izkQcawuqAXvvruj3ckJO1s0+pgojvsvZ9ISz78VF/4JYo7sVtnobVsKnz8HvDDSvEA4zXuS0KDE0hhWWikVJKz4jMjnqIQPrpNO2w/yMNhIalfl+WW1kE6SGp1L9S3iTTdzcj8fKNKGKHj4iPozyIuATCcT2orLZN0H6HchYmfLwokwRKpOSegdxUiuWWttlstXaCk7Ctd38B7vs7H8/0Bt/J6HWxuBFWefjE+JDeH7E+Qc=);strokeColor=#000000;points=[[1,0.5,0],[0.5,0.5,0],[0.5,0,0],[0.03,0.09,0],[0.97,0.09,0],[0.03,0.91,0],[0.97,0.91,0]];labelBackgroundColor=none;rounded=0;html=1;whiteSpace=wrap;fontSize=8;dashed=1;" parent="1" vertex="1">
          <mxGeometry x="60" y="30" width="660" height="170" as="geometry" />
        </mxCell>
        <mxCell id="CfgrEksahoWtLOV5E5xf-109" value="&lt;span style=&quot;font-family: Arial; font-style: normal; font-variant-ligatures: normal; font-variant-caps: normal; font-weight: 400; letter-spacing: normal; orphans: 2; text-indent: 0px; text-transform: none; widows: 2; word-spacing: 0px; -webkit-text-stroke-width: 0px; text-decoration-thickness: initial; text-decoration-style: initial; text-decoration-color: initial; float: none; display: inline !important;&quot;&gt;&lt;font color=&quot;#505050&quot; style=&quot;&quot;&gt;&lt;font style=&quot;font-size: 8px;&quot;&gt;CD4 T&lt;/font&gt;&lt;br&gt;&lt;/font&gt;&lt;/span&gt;" style="text;whiteSpace=wrap;html=1;fontSize=11.2;fontColor=#7EA6E0;labelBackgroundColor=none;strokeWidth=0;fillColor=none;strokeColor=none;align=left;" parent="1" vertex="1">
          <mxGeometry x="575" y="80.99999999999999" width="50" height="20" as="geometry" />
        </mxCell>
        <mxCell id="WBS0zaE24uSwDYQaIOTp-58" value="&lt;br&gt;&lt;div style=&quot;font-size: 8px;&quot;&gt;&lt;/div&gt;" style="verticalAlign=middle;align=center;vsdxID=38;fillColor=none;gradientColor=none;shape=stencil(vVTbjoMgEP0aHiUIG6vPvfwH2aKSpWJG2rp/v5jRXaGyT41vcznMzDkZhojj0MpeEc4GB/ZLPfXVtUScCOe6axVo5y0izkQcawuqAXvvruj3ckJO1s0+pgojvsvZ9ISz78VF/4JYo7sVtnobVsKnz8HvDDSvEA4zXuS0KDE0hhWWikVJKz4jMjnqIQPrpNO2w/yMNhIalfl+WW1kE6SGp1L9S3iTTdzcj8fKNKGKHj4iPozyIuATCcT2orLZN0H6HchYmfLwokwRKpOSegdxUiuWWttlstXaCk7Ctd38B7vs7H8/0Bt/J6HWxuBFWefjE+JDeH7E+Qc=);strokeColor=#000000;points=[[1,0.5,0],[0.5,0.5,0],[0.5,0,0],[0.03,0.09,0],[0.97,0.09,0],[0.03,0.91,0],[0.97,0.91,0]];labelBackgroundColor=none;rounded=0;html=1;whiteSpace=wrap;fontSize=8;dashed=1;" parent="1" vertex="1">
          <mxGeometry x="60" y="390" width="330" height="60" as="geometry" />
        </mxCell>
        <mxCell id="14" value="&lt;br&gt;&lt;div style=&quot;font-size: 8px;&quot;&gt;&lt;/div&gt;" style="verticalAlign=middle;align=center;vsdxID=38;fillColor=none;gradientColor=none;shape=stencil(vVTbjoMgEP0aHiUIG6vPvfwH2aKSpWJG2rp/v5jRXaGyT41vcznMzDkZhojj0MpeEc4GB/ZLPfXVtUScCOe6axVo5y0izkQcawuqAXvvruj3ckJO1s0+pgojvsvZ9ISz78VF/4JYo7sVtnobVsKnz8HvDDSvEA4zXuS0KDE0hhWWikVJKz4jMjnqIQPrpNO2w/yMNhIalfl+WW1kE6SGp1L9S3iTTdzcj8fKNKGKHj4iPozyIuATCcT2orLZN0H6HchYmfLwokwRKpOSegdxUiuWWttlstXaCk7Ctd38B7vs7H8/0Bt/J6HWxuBFWefjE+JDeH7E+Qc=);strokeColor=#000000;points=[[1,0.5,0],[0.5,0.5,0],[0.5,0,0],[0.03,0.09,0],[0.97,0.09,0],[0.03,0.91,0],[0.97,0.91,0]];labelBackgroundColor=none;rounded=0;html=1;whiteSpace=wrap;fontSize=8;dashed=1;" parent="1" vertex="1">
          <mxGeometry x="60" y="240" width="330" height="141" as="geometry" />
        </mxCell>
        <mxCell id="WBS0zaE24uSwDYQaIOTp-55" value="&lt;div style=&quot;font-size: 8px;&quot;&gt;&lt;/div&gt;" style="verticalAlign=middle;align=center;vsdxID=38;fillColor=none;gradientColor=none;shape=stencil(vVTbjoMgEP0aHiUIG6vPvfwH2aKSpWJG2rp/v5jRXaGyT41vcznMzDkZhojj0MpeEc4GB/ZLPfXVtUScCOe6axVo5y0izkQcawuqAXvvruj3ckJO1s0+pgojvsvZ9ISz78VF/4JYo7sVtnobVsKnz8HvDDSvEA4zXuS0KDE0hhWWikVJKz4jMjnqIQPrpNO2w/yMNhIalfl+WW1kE6SGp1L9S3iTTdzcj8fKNKGKHj4iPozyIuATCcT2orLZN0H6HchYmfLwokwRKpOSegdxUiuWWttlstXaCk7Ctd38B7vs7H8/0Bt/J6HWxuBFWefjE+JDeH7E+Qc=);strokeColor=#000000;points=[[1,0.5,0],[0.5,0.5,0],[0.5,0,0],[0.03,0.09,0],[0.97,0.09,0],[0.03,0.91,0],[0.97,0.91,0]];labelBackgroundColor=none;rounded=0;html=1;whiteSpace=wrap;fontSize=8;dashed=1;" parent="1" vertex="1">
          <mxGeometry x="402" y="255" width="318" height="195" as="geometry" />
        </mxCell>
        <mxCell id="3" value="&lt;div style=&quot;font-size: 11.2px;&quot;&gt;&lt;p style=&quot;margin: 0px; text-indent: 0px; direction: ltr; font-size: 11.2px;&quot;&gt;&lt;font style=&quot;font-size: 11.2px; font-family: Arial; direction: ltr; letter-spacing: 0px; line-height: 120%; opacity: 1;&quot;&gt;&lt;font style=&quot;font-size: 11.2px;&quot;&gt;&amp;nbsp;12 scRNA-seq&amp;nbsp;&lt;/font&gt;&lt;/font&gt;&lt;/p&gt;&lt;p style=&quot;margin: 0px; text-indent: 0px; direction: ltr; font-size: 11.2px;&quot;&gt;&lt;span style=&quot;font-family: Arial; letter-spacing: 0px; background-color: initial;&quot;&gt;Datasets&lt;/span&gt;&lt;/p&gt;&lt;/div&gt;" style="verticalAlign=middle;align=center;vsdxID=8;fillColor=#ffffff;gradientColor=none;shape=stencil(rVLLEoIwDPyaHun0ATieUf+jIwU6VsqEKvD3tlaU581bstlks20Qz9pKNBIx0lowN9mp3FaInxBjqq4kKOsixM+IZ4UBWYJ51HnIG+GZPrqbp5/Qh74Y06NvYmQIAHlnl8DVqp5wKSH7VAFXV4EPlSc4TQMZhrE7xewQsJ2B37yPRK/aCIwVVpl6Kke0gFJGTi4qtChnpbaTslnBm15WvkftbTsxjunSDsNJMrOz85b/ckOn+7ng96WF0jpcxLS+PAEHhfPh5xc=);strokeColor=#A5A5A5;spacingTop=-1;spacingBottom=-1;spacingLeft=-1;spacingRight=-1;points=[[0.5,0,0],[0.5,0,0],[0.96,0.5,0]];labelBackgroundColor=none;rounded=0;html=1;whiteSpace=wrap;fontSize=11.2;fontColor=#3885F0;" parent="1" vertex="1">
          <mxGeometry x="96.18" y="248" width="86" height="30" as="geometry" />
        </mxCell>
        <mxCell id="5" value="&lt;div style=&quot;font-size: 11.2px;&quot;&gt;&lt;font style=&quot;font-size: 11.2px; font-family: Arial; direction: ltr; letter-spacing: 0px; line-height: 120%; opacity: 1;&quot;&gt;Segment Sampling&lt;/font&gt;&lt;/div&gt;" style="verticalAlign=middle;align=center;vsdxID=12;fillColor=#E6E6E6;gradientColor=none;shape=stencil(nZBLDoAgDERP0z3SIyjew0SURgSD+Lu9kMZoXLhwN9O+tukAlrNpJg1SzDH4QW/URgNYgZTkjA4UkwJUgGXng+6DX1zLfmoymdXo17xh5zmRJ6Q42BWCfc2oJfdAr+Yv+AP9Cb7OJ3H/2JG1HNGz/84klThPVCc=);strokeColor=#a5a5a5;strokeWidth=1;spacingTop=-1;spacingBottom=-1;spacingLeft=-1;spacingRight=-1;points=[[1,0.5,0],[0.5,0.5,0],[0.5,0,0]];labelBackgroundColor=none;rounded=0;html=1;whiteSpace=wrap;fontSize=11.2;fontColor=#3885F0;" parent="1" vertex="1">
          <mxGeometry x="92.33" y="402.14" width="93.7" height="30" as="geometry" />
        </mxCell>
        <mxCell id="6" style="vsdxID=17;fillColor=#ffffff;gradientColor=none;shape=stencil(tZLLDsIgEEW/hiWEQlvZ1/ofRLElVmgGfP29EDCKRqMLd/M4cwduBvHOjXJWiFHnwe7USW/8iPgSMabNqED7ECHeI95tLagB7MFsUj7LSMZob49R4ZzmaJxg9JKyiqZ8lVAJ69CDjDLaktiMPOQB1pCFSKVMNaWiaEnVZADLs3YYrJdeW1PsnyQMCod9eDvJoWi5k1LzSzm/cNJGvd1dC1KL9/Tts1/iv4k/0RUnovlsbdW+WrsorC0l6f9cDcH9XtKpPfaebyuU0l3y/go=);strokeColor=#a5a5a5;points=[[0.5,0.21,0],[0.5,0.5,0],[0.5,0.79,0]];labelBackgroundColor=none;rounded=0;html=1;whiteSpace=wrap;fontSize=8;" parent="1" vertex="1">
          <mxGeometry x="375" y="352.89" width="45" height="65" as="geometry" />
        </mxCell>
        <mxCell id="9" value="&lt;div style=&quot;font-size: 11.2px;&quot;&gt;&lt;font style=&quot;font-size: 11.2px; font-family: Arial; direction: ltr; letter-spacing: 0px; line-height: 120%; opacity: 1;&quot;&gt;&lt;font style=&quot;font-size: 11.2px;&quot;&gt;Balanced sctGEPs&lt;/font&gt;&lt;/font&gt;&lt;/div&gt;&lt;div style=&quot;font-size: 11.2px;&quot;&gt;&lt;span style=&quot;font-family: Arial; letter-spacing: 0px; background-color: initial;&quot;&gt;(S1)&lt;/span&gt;&lt;/div&gt;" style="verticalAlign=middle;align=center;vsdxID=18;fillColor=#E6E6E6;gradientColor=none;shape=stencil(1VPBEoIgEP0ajjIIpXku+w8mUZlInIVS/z6M0dTi2KHb27dvd+exC2JHU/NWIEqMBX0VnSxsjdgJUSqbWoC0DiGWI3YsNYgK9L0pfNzyUTmim36MHXpft8NpNhZRMniCvKKz1yrZLLQxIWEph4vLwNSW4JR5MQxTdYIZ9Vyg4Rz3Ee+liUBbbqVuluOI4lCJyI2LSsWrVcp0QrQLOg57+fA9zf5qhx1wFm/txHifrOwE3vInbhx4r7SUSvmLmPOhff/dDknQ9caxA9ujd5T/MCx/Ag==);strokeColor=#A5A5A5;spacingTop=-1;spacingBottom=-1;spacingLeft=-1;spacingRight=-1;points=[[0.5,0,0],[0.5,0,0],[1.05,0.5,0],[1,0.5,0]];labelBackgroundColor=none;rounded=0;html=1;whiteSpace=wrap;fontSize=11.2;fontColor=#3885F0;" parent="1" vertex="1">
          <mxGeometry x="260" y="339.61" width="110" height="30" as="geometry" />
        </mxCell>
        <mxCell id="10" value="&lt;div style=&quot;font-size: 11.2px;&quot;&gt;&lt;p style=&quot;margin: 0px; text-indent: 0px; direction: ltr; font-size: 11.2px;&quot;&gt;&lt;font face=&quot;Arial&quot; style=&quot;font-size: 11.2px; direction: ltr; letter-spacing: 0px; line-height: 120%; opacity: 1;&quot;&gt;Cell Prop.&amp;nbsp;&lt;/font&gt;&lt;span style=&quot;font-family: Arial; letter-spacing: 0px; background-color: initial;&quot;&gt;Matrix&lt;/span&gt;&lt;/p&gt;&lt;p style=&quot;margin: 0px; text-indent: 0px; direction: ltr; font-size: 11.2px;&quot;&gt;&lt;span style=&quot;font-family: Arial; letter-spacing: 0px; background-color: initial;&quot;&gt;(P)&lt;/span&gt;&lt;/p&gt;&lt;/div&gt;" style="verticalAlign=middle;align=center;vsdxID=19;fillColor=#ffffff;gradientColor=none;shape=stencil(1VPBEoIgEP0ajjIIpXku+w8mUZlInIVS/z6M0dTi2KHb27dvd+exC2JHU/NWIEqMBX0VnSxsjdgJUSqbWoC0DiGWI3YsNYgK9L0pfNzyUTmim36MHXpft8NpNhZRMniCvKKz1yrZLLQxIWEph4vLwNSW4JR5MQxTdYIZ9Vyg4Rz3Ee+liUBbbqVuluOI4lCJyI2LSsWrVcp0QrQLOg57+fA9zf5qhx1wFm/txHifrOwE3vInbhx4r7SUSvmLmPOhff/dDknQ9caxA9ujd5T/MCx/Ag==);strokeColor=#A5A5A5;spacingTop=-1;spacingBottom=-1;spacingLeft=-1;spacingRight=-1;points=[[0.5,0,0],[0.5,0,0],[1.05,0.5,0],[1,0.5,0]];labelBackgroundColor=none;rounded=0;html=1;whiteSpace=wrap;fontSize=11.2;fontColor=#3885F0;" parent="1" vertex="1">
          <mxGeometry x="260" y="402.14" width="110" height="30" as="geometry" />
        </mxCell>
        <mxCell id="13" value="&lt;div style=&quot;font-size: 11.2px;&quot;&gt;&lt;p style=&quot;margin: 0px; text-indent: 0px; direction: ltr; font-size: 11.2px;&quot;&gt;&lt;font style=&quot;font-size: 11.2px; font-family: Arial; direction: ltr; letter-spacing: 0px; line-height: 120%; opacity: 1;&quot;&gt;Filtered&amp;nbsp;&lt;/font&gt;&lt;span style=&quot;font-family: Arial; letter-spacing: 0px; background-color: initial;&quot;&gt;Bulk&lt;/span&gt;&lt;/p&gt;&lt;p style=&quot;margin: 0px; text-indent: 0px; direction: ltr; font-size: 11.2px;&quot;&gt;&lt;span style=&quot;font-family: Arial; letter-spacing: 0px; background-color: initial;&quot;&gt;GEPs&amp;nbsp;&lt;/span&gt;&lt;span style=&quot;background-color: initial; font-family: Arial; letter-spacing: 0px;&quot;&gt;(D1)&lt;/span&gt;&lt;/p&gt;&lt;/div&gt;" style="verticalAlign=middle;align=center;vsdxID=29;fillColor=#ffffff;gradientColor=none;shape=stencil(1VPBEoIgEP0ajjIIpXku+w8mUZlInIVS/z6M0dTi2KHb27dvd+exC2JHU/NWIEqMBX0VnSxsjdgJUSqbWoC0DiGWI3YsNYgK9L0pfNzyUTmim36MHXpft8NpNhZRMniCvKKz1yrZLLQxIWEph4vLwNSW4JR5MQxTdYIZ9Vyg4Rz3Ee+liUBbbqVuluOI4lCJyI2LSsWrVcp0QrQLOg57+fA9zf5qhx1wFm/txHifrOwE3vInbhx4r7SUSvmLmPOhff/dDknQ9caxA9ujd5T/MCx/Ag==);strokeColor=#A5A5A5;spacingTop=-1;spacingBottom=-1;spacingLeft=-1;spacingRight=-1;points=[[0.5,0,0],[0.5,0,0],[1.05,0.5,0],[1,0.5,0]];labelBackgroundColor=none;rounded=0;html=1;whiteSpace=wrap;fontSize=11.2;fontColor=#3885F0;" parent="1" vertex="1">
          <mxGeometry x="611" y="369.09" width="90" height="30" as="geometry" />
        </mxCell>
        <mxCell id="15" value="&lt;div style=&quot;font-size: 11.2px;&quot;&gt;&lt;p style=&quot;margin: 0px; text-indent: 0px; direction: ltr; font-size: 11.2px;&quot;&gt;&lt;font style=&quot;font-size: 11.2px; font-family: Arial; direction: ltr; letter-spacing: 0px; line-height: 120%; opacity: 1;&quot;&gt;TCGA Dataset&lt;br style=&quot;font-size: 11.2px;&quot;&gt;&lt;/font&gt;&lt;/p&gt;&lt;p style=&quot;margin: 0px; text-indent: 0px; direction: ltr; font-size: 11.2px;&quot;&gt;&lt;font style=&quot;font-size: 11.2px; font-family: Arial; direction: ltr; letter-spacing: 0px; line-height: 120%; opacity: 1;&quot;&gt;&lt;font style=&quot;font-size: 11.2px;&quot;&gt;(19 cancer types)&lt;/font&gt;&lt;br style=&quot;font-size: 11.2px;&quot;&gt;&lt;/font&gt;&lt;/p&gt;&lt;/div&gt;" style="verticalAlign=middle;align=center;vsdxID=40;fillColor=#ffffff;gradientColor=none;shape=stencil(rVLLEoMgDPwajjAItbVna/+DqahMqTiRVv37Qhlbn7feks0mm4UgnraVaCRitLVg7rJTua0QvyDGVF1JUNZFiGeIp4UBWYJ51nnIG+GZPnqYl5/Qh74DOZ98E6NDAOgnuwauVvWEG1G6TxVwcxUYxzLCkkCGYew+EhYHbGfgN++x6FWLwVhhlamnclQLKCV2crjQopyV2k7KZgVveln5HrW37VCSREs7jMRzOztv+S830XQ/F/y+tFBah4uY1pcn4KBwPjx7Aw==);strokeColor=#A5A5A5;spacingTop=-1;spacingBottom=-1;spacingLeft=-1;spacingRight=-1;points=[[0.5,0,0],[0.5,0,0],[0.95,0.5,0]];labelBackgroundColor=none;rounded=0;html=1;whiteSpace=wrap;fontSize=11.2;fontColor=#3885F0;" parent="1" vertex="1">
          <mxGeometry x="496.77000000000004" y="280" width="105.64" height="30" as="geometry" />
        </mxCell>
        <mxCell id="20" value="&lt;div style=&quot;font-size: 10px;&quot;&gt;&lt;p style=&quot;margin: 0px; text-indent: 0px; direction: ltr;&quot;&gt;&lt;font color=&quot;#505050&quot;&gt;&lt;font style=&quot;font-size: 10px; font-family: Arial; direction: ltr; letter-spacing: 0px; line-height: 120%; opacity: 1;&quot;&gt;&lt;b style=&quot;&quot;&gt;GEPs&lt;/b&gt;&lt;/font&gt;&lt;font style=&quot;font-size: 10px; font-family: Arial; direction: ltr; letter-spacing: 0px; line-height: 120%; opacity: 1;&quot;&gt;: gene expression profiles&lt;/font&gt;&lt;/font&gt;&lt;/p&gt;&lt;/div&gt;" style="verticalAlign=middle;align=left;vsdxID=53;fillColor=#ffffff;gradientColor=none;shape=stencil(nZBLDoAgDERP0z3SIyjew0SURgSD+Lu9kMZoXLhwN9O+tukAlrNpJg1SzDH4QW/URgNYgZTkjA4UkwJUgGXng+6DX1zLfmoymdXo17xh5zmRJ6Q42BWCfc2oJfdAr+Yv+AP9Cb7OJ3H/2JG1HNGz/84klThPVCc=);strokeColor=#a5a5a5;strokeWidth=1;points=[];labelBackgroundColor=none;rounded=0;html=1;whiteSpace=wrap;fontSize=11.2;horizontal=1;labelPosition=center;verticalLabelPosition=middle;" parent="1" vertex="1">
          <mxGeometry x="440" y="229" width="148" height="19" as="geometry" />
        </mxCell>
        <mxCell id="21" value="&lt;div style=&quot;font-size: 11.2px;&quot;&gt;&lt;font style=&quot;font-size: 11.2px; font-family: Arial; direction: ltr; letter-spacing: 0px; line-height: 120%; opacity: 1;&quot;&gt;&lt;font style=&quot;font-size: 11.2px;&quot;&gt;Integrated scRNA-seq dataset (S0)&lt;/font&gt;&lt;br style=&quot;font-size: 11.2px;&quot;&gt;&lt;/font&gt;&lt;/div&gt;" style="verticalAlign=middle;align=center;vsdxID=54;fillColor=#ffffff;gradientColor=none;shape=stencil(1VPBEoIgEP0ajjIIo9nZ7D+YRGUicVZK/fsw1NTi2KHb27dvd+exC2JpW/FGIEpaA/oqOpmbCrETolTWlQBpLEIsQywtNIgS9L3OXdzwUTmim36MHXpXx3B4HIsoGRxBXtHZaZWsV9qQEL+Uw8VmYJLSAyZTXxjm6hjTifM0XOI+4L1sA9CGG6nr9TiiOJQisOOCQvFyk2o7IZoVHfq9fPieZ3+3E+Ek2dsJcRRv7Hje8iduLHivtJBKuYtY8r59/90Oidf1zrEF+6O3lPswLHsC);strokeColor=#A5A5A5;spacingTop=-1;spacingBottom=-1;spacingLeft=-1;spacingRight=-1;points=[[0.5,0,0],[0.5,0,0],[1.03,0.5,0],[1,0.5,0]];labelBackgroundColor=none;rounded=0;html=1;whiteSpace=wrap;fontSize=11.2;fontColor=#3885F0;" parent="1" vertex="1">
          <mxGeometry x="79.18" y="339.61" width="120" height="30" as="geometry" />
        </mxCell>
        <mxCell id="4" value="&lt;div style=&quot;font-size: 11.2px;&quot;&gt;&lt;font style=&quot;font-size: 11.2px; font-family: Arial; color: rgb(81, 81, 81); direction: ltr; letter-spacing: 0px; line-height: 120%; opacity: 1;&quot;&gt;Single Cell Dataset Integration&lt;br style=&quot;font-size: 11.2px;&quot;&gt;&lt;/font&gt;&lt;/div&gt;" style="verticalAlign=middle;align=center;vsdxID=9;fillColor=#ffffff;gradientColor=none;shape=stencil(nZBLDoAgDERP0z3SIyjew0SURgSD+Lu9kMZoXLhwN9O+tukAlrNpJg1SzDH4QW/URgNYgZTkjA4UkwJUgGXng+6DX1zLfmoymdXo17xh5zmRJ6Q42BWCfc2oJfdAr+Yv+AP9Cb7OJ3H/2JG1HNGz/84klThPVCc=);strokeColor=#a5a5a5;strokeWidth=2;spacingTop=-1;spacingBottom=-1;spacingLeft=-1;spacingRight=-1;points=[[1,0.5,0],[0.5,0.5,0],[0.5,0,0]];labelBackgroundColor=none;rounded=0;html=1;whiteSpace=wrap;fontSize=11.2;" parent="1" vertex="1">
          <mxGeometry x="244.78" y="219" width="85" height="45" as="geometry" />
        </mxCell>
        <mxCell id="16" value="&lt;div style=&quot;font-size: 11.2px;&quot;&gt;&lt;font style=&quot;font-size: 11.2px; font-family: Arial; color: rgb(81, 81, 81); direction: ltr; letter-spacing: 0px; line-height: 120%; opacity: 1;&quot;&gt;Bulk Tumor Synthesis&lt;br style=&quot;font-size: 11.2px;&quot;&gt;&lt;/font&gt;&lt;/div&gt;&lt;div style=&quot;font-size: 11.2px;&quot;&gt;&lt;font style=&quot;font-size: 11.2px; font-family: Arial; color: rgb(81, 81, 81); direction: ltr; letter-spacing: 0px; line-height: 120%; opacity: 1;&quot;&gt;(Training Set)&lt;/font&gt;&lt;/div&gt;" style="verticalAlign=middle;align=center;vsdxID=45;fillColor=#ffffff;gradientColor=none;shape=stencil(nZBLDoAgDERP0z3SIyjew0SURgSD+Lu9kMZoXLhwN9O+tukAlrNpJg1SzDH4QW/URgNYgZTkjA4UkwJUgGXng+6DX1zLfmoymdXo17xh5zmRJ6Q42BWCfc2oJfdAr+Yv+AP9Cb7OJ3H/2JG1HNGz/84klThPVCc=);strokeColor=#a5a5a5;strokeWidth=2;spacingTop=-1;spacingBottom=-1;spacingLeft=-1;spacingRight=-1;points=[[1,0.5,0],[0.5,0.5,0],[0.5,0,0]];labelBackgroundColor=none;rounded=0;html=1;whiteSpace=wrap;fontSize=11.2;fontFamily=Arial;" parent="1" vertex="1">
          <mxGeometry x="614.5" y="230" width="73" height="45" as="geometry" />
        </mxCell>
        <mxCell id="WBS0zaE24uSwDYQaIOTp-56" value="&lt;div style=&quot;font-size: 11.2px;&quot;&gt;&lt;font style=&quot;font-size: 11.2px; font-family: Arial; color: rgb(81, 81, 81); direction: ltr; letter-spacing: 0px; line-height: 120%; opacity: 1;&quot;&gt;Cell Proportion Generation&lt;br style=&quot;font-size: 11.2px;&quot;&gt;&lt;/font&gt;&lt;/div&gt;" style="verticalAlign=middle;align=center;vsdxID=12;fillColor=#ffffff;gradientColor=none;shape=stencil(nZBLDoAgDERP0z3SIyjew0SURgSD+Lu9kMZoXLhwN9O+tukAlrNpJg1SzDH4QW/URgNYgZTkjA4UkwJUgGXng+6DX1zLfmoymdXo17xh5zmRJ6Q42BWCfc2oJfdAr+Yv+AP9Cb7OJ3H/2JG1HNGz/84klThPVCc=);strokeColor=#a5a5a5;strokeWidth=2;spacingTop=-1;spacingBottom=-1;spacingLeft=-1;spacingRight=-1;points=[[1,0.5,0],[0.5,0.5,0],[0.5,0,0]];labelBackgroundColor=none;rounded=0;html=1;whiteSpace=wrap;fontSize=11.2;" parent="1" vertex="1">
          <mxGeometry x="230" y="438" width="77" height="35" as="geometry" />
        </mxCell>
        <mxCell id="WBS0zaE24uSwDYQaIOTp-60" value="&lt;div style=&quot;font-size: 11.2px;&quot;&gt;&lt;p style=&quot;margin: 0px; direction: ltr; font-size: 11.2px;&quot;&gt;&lt;font style=&quot;font-family: Arial; direction: ltr; letter-spacing: 0px; line-height: 9.6px; opacity: 1; font-size: 11.2px;&quot;&gt;Bulk GEPs&lt;br style=&quot;font-size: 11.2px;&quot;&gt;&lt;/font&gt;&lt;/p&gt;&lt;p style=&quot;margin: 0px; direction: ltr; font-size: 11.2px;&quot;&gt;&lt;font style=&quot;font-family: Arial; direction: ltr; letter-spacing: 0px; line-height: 9.6px; opacity: 1; font-size: 11.2px;&quot;&gt;&lt;font style=&quot;font-size: 11.2px;&quot;&gt;(D2)&lt;/font&gt;&lt;/font&gt;&lt;/p&gt;&lt;/div&gt;" style="verticalAlign=middle;align=center;vsdxID=12;fillColor=#ffffff;gradientColor=none;shape=stencil(nZBLDoAgDERP0z3SIyjew0SURgSD+Lu9kMZoXLhwN9O+tukAlrNpJg1SzDH4QW/URgNYgZTkjA4UkwJUgGXng+6DX1zLfmoymdXo17xh5zmRJ6Q42BWCfc2oJfdAr+Yv+AP9Cb7OJ3H/2JG1HNGz/84klThPVCc=);strokeColor=#a5a5a5;strokeWidth=1;spacingTop=-1;spacingBottom=-1;spacingLeft=-1;spacingRight=-1;points=[[1,0.5,0],[0.5,0.5,0],[0.5,0,0]];labelBackgroundColor=none;rounded=0;html=1;whiteSpace=wrap;fontSize=11.2;fontColor=#3885F0;" parent="1" vertex="1">
          <mxGeometry x="420" y="369.09" width="62.26" height="30" as="geometry" />
        </mxCell>
        <mxCell id="0ngYmaXCJgMvarBHXimJ-31" value="&lt;font style=&quot;font-size: 11.2px;&quot;&gt;Two Filtering Steps&lt;/font&gt;" style="shape=process;whiteSpace=wrap;html=1;backgroundOutline=1;strokeColor=#A5A5A5;fontColor=#3885F0;fillColor=#E6E6E6;" parent="1" vertex="1">
          <mxGeometry x="506.17999999999995" y="369.09" width="84.82" height="30" as="geometry" />
        </mxCell>
        <mxCell id="0ngYmaXCJgMvarBHXimJ-33" value="&lt;span style=&quot;font-family: Arial; font-style: normal; font-variant-ligatures: normal; font-variant-caps: normal; font-weight: 400; letter-spacing: normal; orphans: 2; text-align: center; text-indent: 0px; text-transform: none; widows: 2; word-spacing: 0px; -webkit-text-stroke-width: 0px; text-decoration-thickness: initial; text-decoration-style: initial; text-decoration-color: initial; float: none; display: inline !important;&quot;&gt;&lt;font color=&quot;#505050&quot; style=&quot;font-size: 8.4px;&quot;&gt;16 cell types &lt;br&gt;(6 subtypes included) \(\times\)&lt;br&gt;10,000 GEPs per type&lt;/font&gt;&lt;/span&gt;" style="text;whiteSpace=wrap;html=1;fontSize=11.2;fontColor=#7EA6E0;labelBackgroundColor=none;" parent="1" vertex="1">
          <mxGeometry x="260" y="289.78" width="110" height="48.22" as="geometry" />
        </mxCell>
        <mxCell id="0ngYmaXCJgMvarBHXimJ-34" value="&lt;span style=&quot;font-family: Arial; font-style: normal; font-variant-ligatures: normal; font-variant-caps: normal; font-weight: 400; letter-spacing: normal; orphans: 2; text-indent: 0px; text-transform: none; widows: 2; word-spacing: 0px; -webkit-text-stroke-width: 0px; text-decoration-thickness: initial; text-decoration-style: initial; text-decoration-color: initial; float: none; display: inline !important;&quot;&gt;&lt;font color=&quot;#505050&quot; style=&quot;font-size: 8.4px;&quot;&gt;Output&lt;/font&gt;&lt;font color=&quot;#505050&quot; style=&quot;font-size: 8.4px;&quot;&gt;&lt;br&gt;&lt;/font&gt;&lt;/span&gt;" style="text;whiteSpace=wrap;html=1;fontSize=11.2;fontColor=#7EA6E0;labelBackgroundColor=none;strokeWidth=0;fillColor=none;strokeColor=none;align=center;" parent="1" vertex="1">
          <mxGeometry x="450" y="169.9" width="36" height="20" as="geometry" />
        </mxCell>
        <mxCell id="WBS0zaE24uSwDYQaIOTp-57" value="&lt;div style=&quot;font-size: 11.2px;&quot;&gt;&lt;font style=&quot;font-size: 11.2px; font-family: Arial; color: rgb(81, 81, 81); direction: ltr; letter-spacing: 0px; line-height: 120%; opacity: 1;&quot;&gt;DNN Model&lt;br style=&quot;font-size: 11.2px;&quot;&gt;&lt;/font&gt;&lt;/div&gt;" style="verticalAlign=middle;align=center;vsdxID=12;fillColor=#ffffff;gradientColor=none;shape=stencil(nZBLDoAgDERP0z3SIyjew0SURgSD+Lu9kMZoXLhwN9O+tukAlrNpJg1SzDH4QW/URgNYgZTkjA4UkwJUgGXng+6DX1zLfmoymdXo17xh5zmRJ6Q42BWCfc2oJfdAr+Yv+AP9Cb7OJ3H/2JG1HNGz/84klThPVCc=);strokeColor=#a5a5a5;strokeWidth=2;spacingTop=-1;spacingBottom=-1;spacingLeft=-1;spacingRight=-1;points=[[1,0.5,0],[0.5,0.5,0],[0.5,0,0]];labelBackgroundColor=none;rounded=0;html=1;whiteSpace=wrap;fontSize=11.2;" parent="1" vertex="1">
          <mxGeometry x="107.5" y="20" width="77" height="30" as="geometry" />
        </mxCell>
        <mxCell id="gs9fcGPpMaLvLohl0-i_-35" value="" style="edgeStyle=orthogonalEdgeStyle;rounded=0;orthogonalLoop=1;jettySize=auto;html=1;strokeColor=#A5A5A5;" parent="1" source="CfgrEksahoWtLOV5E5xf-30" target="gs9fcGPpMaLvLohl0-i_-30" edge="1">
          <mxGeometry relative="1" as="geometry" />
        </mxCell>
        <mxCell id="CfgrEksahoWtLOV5E5xf-30" value="&lt;div style=&quot;font-size: 11.2px;&quot;&gt;&lt;p style=&quot;margin: 0px; text-indent: 0px; direction: ltr; font-size: 11.2px;&quot;&gt;&lt;span style=&quot;font-family: Arial; letter-spacing: 0px; background-color: initial;&quot;&gt;Bulk&amp;nbsp;&lt;/span&gt;&lt;span style=&quot;background-color: initial; font-family: Arial; letter-spacing: 0px;&quot;&gt;GEPs&lt;/span&gt;&lt;/p&gt;&lt;/div&gt;" style="verticalAlign=middle;align=center;vsdxID=29;fillColor=#ffffff;gradientColor=none;shape=stencil(1VPBEoIgEP0ajjIIpXku+w8mUZlInIVS/z6M0dTi2KHb27dvd+exC2JHU/NWIEqMBX0VnSxsjdgJUSqbWoC0DiGWI3YsNYgK9L0pfNzyUTmim36MHXpft8NpNhZRMniCvKKz1yrZLLQxIWEph4vLwNSW4JR5MQxTdYIZ9Vyg4Rz3Ee+liUBbbqVuluOI4lCJyI2LSsWrVcp0QrQLOg57+fA9zf5qhx1wFm/txHifrOwE3vInbhx4r7SUSvmLmPOhff/dDknQ9caxA9ujd5T/MCx/Ag==);strokeColor=#A5A5A5;spacingTop=-1;spacingBottom=-1;spacingLeft=-1;spacingRight=-1;points=[[0.5,0,0],[0.5,0,0],[1.05,0.5,0],[1,0.5,0]];labelBackgroundColor=none;rounded=0;html=1;whiteSpace=wrap;fontSize=11.2;fontColor=#3885F0;" parent="1" vertex="1">
          <mxGeometry x="79.18" y="143.5" width="70" height="30" as="geometry" />
        </mxCell>
        <mxCell id="CfgrEksahoWtLOV5E5xf-33" value="&lt;div style=&quot;font-size: 1px&quot;&gt;&lt;font style=&quot;font-size:8.47px;font-family:Arial;color:#505050;direction:ltr;letter-spacing:0px;line-height:120%;opacity:1&quot;&gt;&lt;br&gt;&lt;/font&gt;&lt;/div&gt;" style="vsdxID=52;edgeStyle=none;startArrow=none;endArrow=block;startSize=5;endSize=5;strokeColor=#7a7a7a;spacingTop=0;spacingBottom=0;spacingLeft=0;spacingRight=0;verticalAlign=middle;html=1;labelBackgroundColor=#ffffff;rounded=0;align=center;exitX=1.05;exitY=0.5;exitDx=0;exitDy=0;exitPerimeter=0;horizontal=0;entryX=0;entryY=0.5;entryDx=0;entryDy=0;" parent="1" source="CfgrEksahoWtLOV5E5xf-30" target="gs9fcGPpMaLvLohl0-i_-36" edge="1">
          <mxGeometry x="-0.0369" relative="1" as="geometry">
            <mxPoint as="offset" />
            <Array as="points" />
            <mxPoint x="256" y="130" as="sourcePoint" />
            <mxPoint x="184.5" y="161.14999999999998" as="targetPoint" />
          </mxGeometry>
        </mxCell>
        <mxCell id="CfgrEksahoWtLOV5E5xf-46" value="&lt;span style=&quot;font-family: Arial; font-style: normal; font-variant-ligatures: normal; font-variant-caps: normal; font-weight: 400; letter-spacing: normal; orphans: 2; text-indent: 0px; text-transform: none; widows: 2; word-spacing: 0px; -webkit-text-stroke-width: 0px; text-decoration-thickness: initial; text-decoration-style: initial; text-decoration-color: initial; float: none; display: inline !important;&quot;&gt;&lt;font color=&quot;#505050&quot; style=&quot;font-size: 8.4px;&quot;&gt;Input&lt;/font&gt;&lt;font color=&quot;#505050&quot; style=&quot;font-size: 8.4px;&quot;&gt;&lt;br&gt;&lt;/font&gt;&lt;/span&gt;" style="text;whiteSpace=wrap;html=1;fontSize=11.2;fontColor=#7EA6E0;labelBackgroundColor=none;strokeWidth=0;fillColor=none;strokeColor=none;align=center;" parent="1" vertex="1">
          <mxGeometry x="97.27000000000001" y="169.9" width="33.82" height="20" as="geometry" />
        </mxCell>
        <mxCell id="CfgrEksahoWtLOV5E5xf-64" value="&lt;span style=&quot;font-family: Arial; font-style: normal; font-variant-ligatures: normal; font-variant-caps: normal; font-weight: 400; letter-spacing: normal; orphans: 2; text-indent: 0px; text-transform: none; widows: 2; word-spacing: 0px; -webkit-text-stroke-width: 0px; text-decoration-thickness: initial; text-decoration-style: initial; text-decoration-color: initial; float: none; display: inline !important;&quot;&gt;&lt;font color=&quot;#505050&quot; style=&quot;font-size: 8.4px;&quot;&gt;Predicted&lt;br&gt;cell proportions&lt;br&gt;&lt;/font&gt;&lt;/span&gt;" style="text;whiteSpace=wrap;html=1;fontSize=11.2;fontColor=#7EA6E0;labelBackgroundColor=none;strokeWidth=0;fillColor=none;strokeColor=none;align=center;" parent="1" vertex="1">
          <mxGeometry x="422" y="31.700000000000003" width="80" height="25" as="geometry" />
        </mxCell>
        <mxCell id="CfgrEksahoWtLOV5E5xf-73" value="&lt;span style=&quot;font-family: Arial; font-style: normal; font-variant-ligatures: normal; font-variant-caps: normal; font-weight: 400; letter-spacing: normal; orphans: 2; text-indent: 0px; text-transform: none; widows: 2; word-spacing: 0px; -webkit-text-stroke-width: 0px; text-decoration-thickness: initial; text-decoration-style: initial; text-decoration-color: initial; float: none; display: inline !important;&quot;&gt;&lt;font color=&quot;#505050&quot; style=&quot;font-size: 8.4px;&quot;&gt;Sampled&lt;br&gt;cell proportions&lt;br&gt;&lt;/font&gt;&lt;/span&gt;" style="text;whiteSpace=wrap;html=1;fontSize=11.2;fontColor=#7EA6E0;labelBackgroundColor=none;strokeWidth=0;fillColor=none;strokeColor=none;align=center;" parent="1" vertex="1">
          <mxGeometry x="516" y="31.700000000000003" width="80" height="30" as="geometry" />
        </mxCell>
        <mxCell id="CfgrEksahoWtLOV5E5xf-78" value="&lt;div style=&quot;font-size: 8px;&quot;&gt;&lt;font style=&quot;font-size: 8px; font-family: Arial; direction: ltr; letter-spacing: 0px; line-height: 120%; opacity: 1;&quot;&gt;&lt;div style=&quot;border-color: var(--border-color); font-family: Helvetica; font-size: 11px;&quot;&gt;&lt;br&gt;&lt;/div&gt;&lt;/font&gt;&lt;/div&gt;" style="verticalAlign=middle;align=center;vsdxID=51;fillColor=#97D077;gradientColor=none;shape=stencil(nZBLDoAgDERP0z3SIyjew0SURgSD+Lu9kMZoXLhwN9O+tukAlrNpJg1SzDH4QW/URgNYgZTkjA4UkwJUgGXng+6DX1zLfmoymdXo17xh5zmRJ6Q42BWCfc2oJfdAr+Yv+AP9Cb7OJ3H/2JG1HNGz/84klThPVCc=);strokeColor=#a5a5a5;strokeWidth=1;points=[[0.5,1,0]];labelBackgroundColor=none;rounded=0;html=1;whiteSpace=wrap;fontSize=8;direction=south;horizontal=1;" parent="1" vertex="1">
          <mxGeometry x="548.5" y="170.15" width="15" height="10" as="geometry" />
        </mxCell>
        <mxCell id="CfgrEksahoWtLOV5E5xf-74" value="&lt;div style=&quot;font-size: 12px;&quot;&gt;&lt;font style=&quot;font-size: 12px; font-family: Arial; direction: ltr; letter-spacing: 0px; line-height: 120%; opacity: 1;&quot;&gt;&lt;div style=&quot;border-color: var(--border-color); font-family: Helvetica; font-size: 12px;&quot;&gt;&lt;br style=&quot;font-size: 12px;&quot;&gt;&lt;/div&gt;&lt;/font&gt;&lt;/div&gt;" style="verticalAlign=middle;align=center;vsdxID=51;fillColor=#FFE6CC;gradientColor=none;shape=stencil(nZBLDoAgDERP0z3SIyjew0SURgSD+Lu9kMZoXLhwN9O+tukAlrNpJg1SzDH4QW/URgNYgZTkjA4UkwJUgGXng+6DX1zLfmoymdXo17xh5zmRJ6Q42BWCfc2oJfdAr+Yv+AP9Cb7OJ3H/2JG1HNGz/84klThPVCc=);strokeColor=#a5a5a5;strokeWidth=1;points=[[0.5,1,0]];labelBackgroundColor=none;rounded=0;html=1;whiteSpace=wrap;fontSize=12;direction=south;horizontal=1;" parent="1" vertex="1">
          <mxGeometry x="460.5" y="150" width="15" height="10" as="geometry" />
        </mxCell>
        <mxCell id="CfgrEksahoWtLOV5E5xf-75" value="&lt;div style=&quot;font-size: 12px;&quot;&gt;&lt;font style=&quot;font-size: 12px; font-family: Arial; direction: ltr; letter-spacing: 0px; line-height: 120%; opacity: 1;&quot;&gt;&lt;div style=&quot;border-color: var(--border-color); font-family: Helvetica; font-size: 12px;&quot;&gt;&lt;br style=&quot;font-size: 12px;&quot;&gt;&lt;/div&gt;&lt;/font&gt;&lt;/div&gt;" style="verticalAlign=middle;align=center;vsdxID=51;fillColor=#FFCC99;gradientColor=none;shape=stencil(nZBLDoAgDERP0z3SIyjew0SURgSD+Lu9kMZoXLhwN9O+tukAlrNpJg1SzDH4QW/URgNYgZTkjA4UkwJUgGXng+6DX1zLfmoymdXo17xh5zmRJ6Q42BWCfc2oJfdAr+Yv+AP9Cb7OJ3H/2JG1HNGz/84klThPVCc=);strokeColor=#a5a5a5;strokeWidth=1;points=[[0.5,1,0]];labelBackgroundColor=none;rounded=0;html=1;whiteSpace=wrap;fontSize=12;direction=south;horizontal=1;" parent="1" vertex="1">
          <mxGeometry x="460.5" y="160" width="15" height="10" as="geometry" />
        </mxCell>
        <mxCell id="CfgrEksahoWtLOV5E5xf-76" value="&lt;div style=&quot;font-size: 12px;&quot;&gt;&lt;font style=&quot;font-size: 12px; font-family: Arial; direction: ltr; letter-spacing: 0px; line-height: 120%; opacity: 1;&quot;&gt;&lt;div style=&quot;border-color: var(--border-color); font-family: Helvetica; font-size: 12px;&quot;&gt;&lt;br style=&quot;font-size: 12px;&quot;&gt;&lt;/div&gt;&lt;/font&gt;&lt;/div&gt;" style="verticalAlign=middle;align=center;vsdxID=51;fillColor=#FF9933;gradientColor=none;shape=stencil(nZBLDoAgDERP0z3SIyjew0SURgSD+Lu9kMZoXLhwN9O+tukAlrNpJg1SzDH4QW/URgNYgZTkjA4UkwJUgGXng+6DX1zLfmoymdXo17xh5zmRJ6Q42BWCfc2oJfdAr+Yv+AP9Cb7OJ3H/2JG1HNGz/84klThPVCc=);strokeColor=#a5a5a5;strokeWidth=1;points=[[0.5,1,0]];labelBackgroundColor=none;rounded=0;html=1;whiteSpace=wrap;fontSize=12;direction=south;horizontal=1;" parent="1" vertex="1">
          <mxGeometry x="460.5" y="140" width="15" height="10" as="geometry" />
        </mxCell>
        <mxCell id="CfgrEksahoWtLOV5E5xf-77" value="&lt;div style=&quot;font-size: 12px;&quot;&gt;&lt;font style=&quot;font-size: 12px; font-family: Arial; direction: ltr; letter-spacing: 0px; line-height: 120%; opacity: 1;&quot;&gt;&lt;div style=&quot;border-color: var(--border-color); font-family: Helvetica; font-size: 12px;&quot;&gt;&lt;br style=&quot;font-size: 12px;&quot;&gt;&lt;/div&gt;&lt;/font&gt;&lt;/div&gt;" style="verticalAlign=middle;align=center;vsdxID=51;fillColor=#FFCC99;gradientColor=none;shape=stencil(nZBLDoAgDERP0z3SIyjew0SURgSD+Lu9kMZoXLhwN9O+tukAlrNpJg1SzDH4QW/URgNYgZTkjA4UkwJUgGXng+6DX1zLfmoymdXo17xh5zmRJ6Q42BWCfc2oJfdAr+Yv+AP9Cb7OJ3H/2JG1HNGz/84klThPVCc=);strokeColor=#a5a5a5;strokeWidth=1;points=[[0.5,1,0]];labelBackgroundColor=none;rounded=0;html=1;whiteSpace=wrap;fontSize=12;direction=south;horizontal=1;" parent="1" vertex="1">
          <mxGeometry x="460.5" y="120" width="15" height="20" as="geometry" />
        </mxCell>
        <mxCell id="CfgrEksahoWtLOV5E5xf-80" value="&lt;div style=&quot;font-size: 12px;&quot;&gt;&lt;font style=&quot;font-size: 12px; font-family: Arial; direction: ltr; letter-spacing: 0px; line-height: 120%; opacity: 1;&quot;&gt;&lt;div style=&quot;border-color: var(--border-color); font-family: Helvetica; font-size: 12px;&quot;&gt;&lt;br style=&quot;font-size: 12px;&quot;&gt;&lt;/div&gt;&lt;/font&gt;&lt;/div&gt;" style="verticalAlign=middle;align=center;vsdxID=51;fillColor=#994C00;gradientColor=none;shape=stencil(nZBLDoAgDERP0z3SIyjew0SURgSD+Lu9kMZoXLhwN9O+tukAlrNpJg1SzDH4QW/URgNYgZTkjA4UkwJUgGXng+6DX1zLfmoymdXo17xh5zmRJ6Q42BWCfc2oJfdAr+Yv+AP9Cb7OJ3H/2JG1HNGz/84klThPVCc=);strokeColor=#a5a5a5;strokeWidth=1;points=[[0.5,1,0]];labelBackgroundColor=none;rounded=0;html=1;whiteSpace=wrap;fontSize=12;direction=south;horizontal=1;" parent="1" vertex="1">
          <mxGeometry x="460.5" y="100" width="15" height="10" as="geometry" />
        </mxCell>
        <mxCell id="CfgrEksahoWtLOV5E5xf-81" value="&lt;div style=&quot;font-size: 12px;&quot;&gt;&lt;font style=&quot;font-size: 12px; font-family: Arial; direction: ltr; letter-spacing: 0px; line-height: 120%; opacity: 1;&quot;&gt;&lt;div style=&quot;border-color: var(--border-color); font-family: Helvetica; font-size: 12px;&quot;&gt;&lt;br style=&quot;font-size: 12px;&quot;&gt;&lt;/div&gt;&lt;/font&gt;&lt;/div&gt;" style="verticalAlign=middle;align=center;vsdxID=51;fillColor=#FFE6CC;gradientColor=none;shape=stencil(nZBLDoAgDERP0z3SIyjew0SURgSD+Lu9kMZoXLhwN9O+tukAlrNpJg1SzDH4QW/URgNYgZTkjA4UkwJUgGXng+6DX1zLfmoymdXo17xh5zmRJ6Q42BWCfc2oJfdAr+Yv+AP9Cb7OJ3H/2JG1HNGz/84klThPVCc=);strokeColor=#a5a5a5;strokeWidth=1;points=[[0.5,1,0]];labelBackgroundColor=none;rounded=0;html=1;whiteSpace=wrap;fontSize=12;direction=south;horizontal=1;" parent="1" vertex="1">
          <mxGeometry x="460.5" y="110" width="15" height="10" as="geometry" />
        </mxCell>
        <mxCell id="CfgrEksahoWtLOV5E5xf-82" value="&lt;div style=&quot;font-size: 12px;&quot;&gt;&lt;font style=&quot;font-size: 12px; font-family: Arial; direction: ltr; letter-spacing: 0px; line-height: 120%; opacity: 1;&quot;&gt;&lt;div style=&quot;border-color: var(--border-color); font-family: Helvetica; font-size: 12px;&quot;&gt;&lt;br style=&quot;font-size: 12px;&quot;&gt;&lt;/div&gt;&lt;/font&gt;&lt;/div&gt;" style="verticalAlign=middle;align=center;vsdxID=51;fillColor=#FFE6CC;gradientColor=none;shape=stencil(nZBLDoAgDERP0z3SIyjew0SURgSD+Lu9kMZoXLhwN9O+tukAlrNpJg1SzDH4QW/URgNYgZTkjA4UkwJUgGXng+6DX1zLfmoymdXo17xh5zmRJ6Q42BWCfc2oJfdAr+Yv+AP9Cb7OJ3H/2JG1HNGz/84klThPVCc=);strokeColor=#a5a5a5;strokeWidth=1;points=[[0.5,1,0]];labelBackgroundColor=none;rounded=0;html=1;whiteSpace=wrap;fontSize=12;direction=south;horizontal=1;" parent="1" vertex="1">
          <mxGeometry x="460.5" y="90" width="15" height="10" as="geometry" />
        </mxCell>
        <mxCell id="CfgrEksahoWtLOV5E5xf-83" value="&lt;div style=&quot;font-size: 12px;&quot;&gt;&lt;font style=&quot;font-size: 12px; font-family: Arial; direction: ltr; letter-spacing: 0px; line-height: 120%; opacity: 1;&quot;&gt;&lt;div style=&quot;border-color: var(--border-color); font-family: Helvetica; font-size: 12px;&quot;&gt;&lt;br style=&quot;font-size: 12px;&quot;&gt;&lt;/div&gt;&lt;/font&gt;&lt;/div&gt;" style="verticalAlign=middle;align=center;vsdxID=51;fillColor=#FFE6CC;gradientColor=none;shape=stencil(nZBLDoAgDERP0z3SIyjew0SURgSD+Lu9kMZoXLhwN9O+tukAlrNpJg1SzDH4QW/URgNYgZTkjA4UkwJUgGXng+6DX1zLfmoymdXo17xh5zmRJ6Q42BWCfc2oJfdAr+Yv+AP9Cb7OJ3H/2JG1HNGz/84klThPVCc=);strokeColor=#a5a5a5;strokeWidth=1;points=[[0.5,1,0]];labelBackgroundColor=none;rounded=0;html=1;whiteSpace=wrap;fontSize=12;direction=south;horizontal=1;" parent="1" vertex="1">
          <mxGeometry x="460.5" y="70" width="15" height="10" as="geometry" />
        </mxCell>
        <mxCell id="CfgrEksahoWtLOV5E5xf-84" value="&lt;div style=&quot;font-size: 12px;&quot;&gt;&lt;font style=&quot;font-size: 12px; font-family: Arial; direction: ltr; letter-spacing: 0px; line-height: 120%; opacity: 1;&quot;&gt;&lt;div style=&quot;border-color: var(--border-color); font-family: Helvetica; font-size: 12px;&quot;&gt;&lt;br style=&quot;font-size: 12px;&quot;&gt;&lt;/div&gt;&lt;/font&gt;&lt;/div&gt;" style="verticalAlign=middle;align=center;vsdxID=51;fillColor=#FFB366;gradientColor=none;shape=stencil(nZBLDoAgDERP0z3SIyjew0SURgSD+Lu9kMZoXLhwN9O+tukAlrNpJg1SzDH4QW/URgNYgZTkjA4UkwJUgGXng+6DX1zLfmoymdXo17xh5zmRJ6Q42BWCfc2oJfdAr+Yv+AP9Cb7OJ3H/2JG1HNGz/84klThPVCc=);strokeColor=#a5a5a5;strokeWidth=1;points=[[0.5,1,0]];labelBackgroundColor=none;rounded=0;html=1;whiteSpace=wrap;fontSize=12;direction=south;horizontal=1;" parent="1" vertex="1">
          <mxGeometry x="460.5" y="80" width="15" height="10" as="geometry" />
        </mxCell>
        <mxCell id="CfgrEksahoWtLOV5E5xf-108" value="&lt;span style=&quot;font-family: Arial; font-style: normal; font-variant-ligatures: normal; font-variant-caps: normal; font-weight: 400; letter-spacing: normal; orphans: 2; text-indent: 0px; text-transform: none; widows: 2; word-spacing: 0px; -webkit-text-stroke-width: 0px; text-decoration-thickness: initial; text-decoration-style: initial; text-decoration-color: initial; float: none; display: inline !important;&quot;&gt;&lt;font color=&quot;#505050&quot; style=&quot;&quot;&gt;&lt;font style=&quot;font-size: 8px;&quot;&gt;Plasma B Cells&lt;/font&gt;&lt;br&gt;&lt;/font&gt;&lt;/span&gt;" style="text;whiteSpace=wrap;html=1;fontSize=11.2;fontColor=#7EA6E0;labelBackgroundColor=none;strokeWidth=0;fillColor=none;strokeColor=none;align=left;" parent="1" vertex="1">
          <mxGeometry x="575" y="61" width="60" height="20" as="geometry" />
        </mxCell>
        <mxCell id="CfgrEksahoWtLOV5E5xf-110" value="&lt;span style=&quot;font-family: Arial; font-style: normal; font-variant-ligatures: normal; font-variant-caps: normal; font-weight: 400; letter-spacing: normal; orphans: 2; text-indent: 0px; text-transform: none; widows: 2; word-spacing: 0px; -webkit-text-stroke-width: 0px; text-decoration-thickness: initial; text-decoration-style: initial; text-decoration-color: initial; float: none; display: inline !important;&quot;&gt;&lt;font color=&quot;#505050&quot; style=&quot;&quot;&gt;&lt;span style=&quot;font-size: 8px;&quot;&gt;\(\vdots\)&lt;/span&gt;&lt;br&gt;&lt;/font&gt;&lt;/span&gt;" style="text;whiteSpace=wrap;html=1;fontSize=11.2;fontColor=#7EA6E0;labelBackgroundColor=none;strokeWidth=0;fillColor=none;strokeColor=none;align=left;" parent="1" vertex="1">
          <mxGeometry x="580" y="119" width="10" height="20" as="geometry" />
        </mxCell>
        <mxCell id="CfgrEksahoWtLOV5E5xf-111" value="&lt;span style=&quot;font-family: Arial; font-style: normal; font-variant-ligatures: normal; font-variant-caps: normal; font-weight: 400; letter-spacing: normal; orphans: 2; text-indent: 0px; text-transform: none; widows: 2; word-spacing: 0px; -webkit-text-stroke-width: 0px; text-decoration-thickness: initial; text-decoration-style: initial; text-decoration-color: initial; float: none; display: inline !important;&quot;&gt;&lt;font color=&quot;#505050&quot; style=&quot;&quot;&gt;&lt;font style=&quot;font-size: 8px;&quot;&gt;NK&lt;/font&gt;&lt;br&gt;&lt;/font&gt;&lt;/span&gt;" style="text;whiteSpace=wrap;html=1;fontSize=11.2;fontColor=#7EA6E0;labelBackgroundColor=none;strokeWidth=0;fillColor=none;strokeColor=none;align=left;" parent="1" vertex="1">
          <mxGeometry x="575" y="140.57" width="50" height="20" as="geometry" />
        </mxCell>
        <mxCell id="CfgrEksahoWtLOV5E5xf-114" value="&lt;div style=&quot;font-size: 12px;&quot;&gt;&lt;font style=&quot;font-size: 12px; font-family: Arial; direction: ltr; letter-spacing: 0px; line-height: 120%; opacity: 1;&quot;&gt;&lt;div style=&quot;border-color: var(--border-color); font-family: Helvetica; font-size: 12px;&quot;&gt;&lt;br style=&quot;font-size: 12px;&quot;&gt;&lt;/div&gt;&lt;/font&gt;&lt;/div&gt;" style="verticalAlign=middle;align=center;vsdxID=51;fillColor=#FFE6CC;gradientColor=none;shape=stencil(nZBLDoAgDERP0z3SIyjew0SURgSD+Lu9kMZoXLhwN9O+tukAlrNpJg1SzDH4QW/URgNYgZTkjA4UkwJUgGXng+6DX1zLfmoymdXo17xh5zmRJ6Q42BWCfc2oJfdAr+Yv+AP9Cb7OJ3H/2JG1HNGz/84klThPVCc=);strokeColor=#a5a5a5;strokeWidth=1;points=[[0.5,1,0]];labelBackgroundColor=none;rounded=0;html=1;whiteSpace=wrap;fontSize=12;direction=south;horizontal=1;" parent="1" vertex="1">
          <mxGeometry x="548.5" y="150.15" width="15" height="10" as="geometry" />
        </mxCell>
        <mxCell id="CfgrEksahoWtLOV5E5xf-115" value="&lt;div style=&quot;font-size: 12px;&quot;&gt;&lt;font style=&quot;font-size: 12px; font-family: Arial; direction: ltr; letter-spacing: 0px; line-height: 120%; opacity: 1;&quot;&gt;&lt;div style=&quot;border-color: var(--border-color); font-family: Helvetica; font-size: 12px;&quot;&gt;&lt;br style=&quot;font-size: 12px;&quot;&gt;&lt;/div&gt;&lt;/font&gt;&lt;/div&gt;" style="verticalAlign=middle;align=center;vsdxID=51;fillColor=#FFB366;gradientColor=none;shape=stencil(nZBLDoAgDERP0z3SIyjew0SURgSD+Lu9kMZoXLhwN9O+tukAlrNpJg1SzDH4QW/URgNYgZTkjA4UkwJUgGXng+6DX1zLfmoymdXo17xh5zmRJ6Q42BWCfc2oJfdAr+Yv+AP9Cb7OJ3H/2JG1HNGz/84klThPVCc=);strokeColor=#a5a5a5;strokeWidth=1;points=[[0.5,1,0]];labelBackgroundColor=none;rounded=0;html=1;whiteSpace=wrap;fontSize=12;direction=south;horizontal=1;" parent="1" vertex="1">
          <mxGeometry x="548.5" y="160.15" width="15" height="10" as="geometry" />
        </mxCell>
        <mxCell id="CfgrEksahoWtLOV5E5xf-116" value="&lt;div style=&quot;font-size: 12px;&quot;&gt;&lt;font style=&quot;font-size: 12px; font-family: Arial; direction: ltr; letter-spacing: 0px; line-height: 120%; opacity: 1;&quot;&gt;&lt;div style=&quot;border-color: var(--border-color); font-family: Helvetica; font-size: 12px;&quot;&gt;&lt;br style=&quot;font-size: 12px;&quot;&gt;&lt;/div&gt;&lt;/font&gt;&lt;/div&gt;" style="verticalAlign=middle;align=center;vsdxID=51;fillColor=#994C00;gradientColor=none;shape=stencil(nZBLDoAgDERP0z3SIyjew0SURgSD+Lu9kMZoXLhwN9O+tukAlrNpJg1SzDH4QW/URgNYgZTkjA4UkwJUgGXng+6DX1zLfmoymdXo17xh5zmRJ6Q42BWCfc2oJfdAr+Yv+AP9Cb7OJ3H/2JG1HNGz/84klThPVCc=);strokeColor=#a5a5a5;strokeWidth=1;points=[[0.5,1,0]];labelBackgroundColor=none;rounded=0;html=1;whiteSpace=wrap;fontSize=12;direction=south;horizontal=1;" parent="1" vertex="1">
          <mxGeometry x="548.5" y="140.15" width="15" height="10" as="geometry" />
        </mxCell>
        <mxCell id="CfgrEksahoWtLOV5E5xf-117" value="&lt;div style=&quot;font-size: 12px;&quot;&gt;&lt;font style=&quot;font-size: 12px; font-family: Arial; direction: ltr; letter-spacing: 0px; line-height: 120%; opacity: 1;&quot;&gt;&lt;div style=&quot;border-color: var(--border-color); font-family: Helvetica; font-size: 12px;&quot;&gt;&lt;br style=&quot;font-size: 12px;&quot;&gt;&lt;/div&gt;&lt;/font&gt;&lt;/div&gt;" style="verticalAlign=middle;align=center;vsdxID=51;fillColor=#FFCC99;gradientColor=none;shape=stencil(nZBLDoAgDERP0z3SIyjew0SURgSD+Lu9kMZoXLhwN9O+tukAlrNpJg1SzDH4QW/URgNYgZTkjA4UkwJUgGXng+6DX1zLfmoymdXo17xh5zmRJ6Q42BWCfc2oJfdAr+Yv+AP9Cb7OJ3H/2JG1HNGz/84klThPVCc=);strokeColor=#a5a5a5;strokeWidth=1;points=[[0.5,1,0]];labelBackgroundColor=none;rounded=0;html=1;whiteSpace=wrap;fontSize=12;direction=south;horizontal=1;" parent="1" vertex="1">
          <mxGeometry x="548.5" y="120.15" width="15" height="19.85" as="geometry" />
        </mxCell>
        <mxCell id="CfgrEksahoWtLOV5E5xf-119" value="&lt;div style=&quot;font-size: 12px;&quot;&gt;&lt;font style=&quot;font-size: 12px; font-family: Arial; direction: ltr; letter-spacing: 0px; line-height: 120%; opacity: 1;&quot;&gt;&lt;div style=&quot;border-color: var(--border-color); font-family: Helvetica; font-size: 12px;&quot;&gt;&lt;br style=&quot;font-size: 12px;&quot;&gt;&lt;/div&gt;&lt;/font&gt;&lt;/div&gt;" style="verticalAlign=middle;align=center;vsdxID=51;fillColor=#FF9933;gradientColor=none;shape=stencil(nZBLDoAgDERP0z3SIyjew0SURgSD+Lu9kMZoXLhwN9O+tukAlrNpJg1SzDH4QW/URgNYgZTkjA4UkwJUgGXng+6DX1zLfmoymdXo17xh5zmRJ6Q42BWCfc2oJfdAr+Yv+AP9Cb7OJ3H/2JG1HNGz/84klThPVCc=);strokeColor=#a5a5a5;strokeWidth=1;points=[[0.5,1,0]];labelBackgroundColor=none;rounded=0;html=1;whiteSpace=wrap;fontSize=12;direction=south;horizontal=1;" parent="1" vertex="1">
          <mxGeometry x="548.5" y="100.15" width="15" height="10" as="geometry" />
        </mxCell>
        <mxCell id="CfgrEksahoWtLOV5E5xf-120" value="&lt;div style=&quot;font-size: 12px;&quot;&gt;&lt;font style=&quot;font-size: 12px; font-family: Arial; direction: ltr; letter-spacing: 0px; line-height: 120%; opacity: 1;&quot;&gt;&lt;div style=&quot;border-color: var(--border-color); font-family: Helvetica; font-size: 12px;&quot;&gt;&lt;br style=&quot;font-size: 12px;&quot;&gt;&lt;/div&gt;&lt;/font&gt;&lt;/div&gt;" style="verticalAlign=middle;align=center;vsdxID=51;fillColor=#FFE6CC;gradientColor=none;shape=stencil(nZBLDoAgDERP0z3SIyjew0SURgSD+Lu9kMZoXLhwN9O+tukAlrNpJg1SzDH4QW/URgNYgZTkjA4UkwJUgGXng+6DX1zLfmoymdXo17xh5zmRJ6Q42BWCfc2oJfdAr+Yv+AP9Cb7OJ3H/2JG1HNGz/84klThPVCc=);strokeColor=#a5a5a5;strokeWidth=1;points=[[0.5,1,0]];labelBackgroundColor=none;rounded=0;html=1;whiteSpace=wrap;fontSize=12;direction=south;horizontal=1;" parent="1" vertex="1">
          <mxGeometry x="548.5" y="110.15" width="15" height="10" as="geometry" />
        </mxCell>
        <mxCell id="CfgrEksahoWtLOV5E5xf-121" value="&lt;div style=&quot;font-size: 12px;&quot;&gt;&lt;font style=&quot;font-size: 12px; font-family: Arial; direction: ltr; letter-spacing: 0px; line-height: 120%; opacity: 1;&quot;&gt;&lt;div style=&quot;border-color: var(--border-color); font-family: Helvetica; font-size: 12px;&quot;&gt;&lt;br style=&quot;font-size: 12px;&quot;&gt;&lt;/div&gt;&lt;/font&gt;&lt;/div&gt;" style="verticalAlign=middle;align=center;vsdxID=51;fillColor=#FFE6CC;gradientColor=none;shape=stencil(nZBLDoAgDERP0z3SIyjew0SURgSD+Lu9kMZoXLhwN9O+tukAlrNpJg1SzDH4QW/URgNYgZTkjA4UkwJUgGXng+6DX1zLfmoymdXo17xh5zmRJ6Q42BWCfc2oJfdAr+Yv+AP9Cb7OJ3H/2JG1HNGz/84klThPVCc=);strokeColor=#a5a5a5;strokeWidth=1;points=[[0.5,1,0]];labelBackgroundColor=none;rounded=0;html=1;whiteSpace=wrap;fontSize=12;direction=south;horizontal=1;" parent="1" vertex="1">
          <mxGeometry x="548.5" y="90.15" width="15" height="10" as="geometry" />
        </mxCell>
        <mxCell id="CfgrEksahoWtLOV5E5xf-122" value="&lt;div style=&quot;font-size: 12px;&quot;&gt;&lt;font style=&quot;font-size: 12px; font-family: Arial; direction: ltr; letter-spacing: 0px; line-height: 120%; opacity: 1;&quot;&gt;&lt;div style=&quot;border-color: var(--border-color); font-family: Helvetica; font-size: 12px;&quot;&gt;&lt;br style=&quot;font-size: 12px;&quot;&gt;&lt;/div&gt;&lt;/font&gt;&lt;/div&gt;" style="verticalAlign=middle;align=center;vsdxID=51;fillColor=#FFE6CC;gradientColor=none;shape=stencil(nZBLDoAgDERP0z3SIyjew0SURgSD+Lu9kMZoXLhwN9O+tukAlrNpJg1SzDH4QW/URgNYgZTkjA4UkwJUgGXng+6DX1zLfmoymdXo17xh5zmRJ6Q42BWCfc2oJfdAr+Yv+AP9Cb7OJ3H/2JG1HNGz/84klThPVCc=);strokeColor=#a5a5a5;strokeWidth=1;points=[[0.5,1,0]];labelBackgroundColor=none;rounded=0;html=1;whiteSpace=wrap;fontSize=12;direction=south;horizontal=1;" parent="1" vertex="1">
          <mxGeometry x="548.5" y="70.15" width="15" height="10" as="geometry" />
        </mxCell>
        <mxCell id="CfgrEksahoWtLOV5E5xf-123" value="&lt;div style=&quot;font-size: 12px;&quot;&gt;&lt;font style=&quot;font-size: 12px; font-family: Arial; direction: ltr; letter-spacing: 0px; line-height: 120%; opacity: 1;&quot;&gt;&lt;div style=&quot;border-color: var(--border-color); font-family: Helvetica; font-size: 12px;&quot;&gt;&lt;br style=&quot;font-size: 12px;&quot;&gt;&lt;/div&gt;&lt;/font&gt;&lt;/div&gt;" style="verticalAlign=middle;align=center;vsdxID=51;fillColor=#FFCC99;gradientColor=none;shape=stencil(nZBLDoAgDERP0z3SIyjew0SURgSD+Lu9kMZoXLhwN9O+tukAlrNpJg1SzDH4QW/URgNYgZTkjA4UkwJUgGXng+6DX1zLfmoymdXo17xh5zmRJ6Q42BWCfc2oJfdAr+Yv+AP9Cb7OJ3H/2JG1HNGz/84klThPVCc=);strokeColor=#a5a5a5;strokeWidth=1;points=[[0.5,1,0]];labelBackgroundColor=none;rounded=0;html=1;whiteSpace=wrap;fontSize=12;direction=south;horizontal=1;" parent="1" vertex="1">
          <mxGeometry x="548.5" y="80.15" width="15" height="10" as="geometry" />
        </mxCell>
        <mxCell id="CfgrEksahoWtLOV5E5xf-112" value="&lt;span style=&quot;orphans: 2; text-indent: 0px; widows: 2; text-decoration-thickness: initial; text-decoration-style: initial; text-decoration-color: initial; float: none; display: inline !important; -webkit-text-stroke-width: 0px; word-spacing: 0px; text-transform: none; letter-spacing: normal; font-weight: 400; font-variant-caps: normal; font-variant-ligatures: normal; font-style: normal; font-family: Arial;&quot;&gt;&lt;font color=&quot;#505050&quot; style=&quot;&quot;&gt;&lt;font style=&quot;font-size: 8px;&quot;&gt;Neutrophils&lt;/font&gt;&lt;br&gt;&lt;/font&gt;&lt;/span&gt;" style="text;whiteSpace=wrap;html=1;fontSize=11.2;fontColor=#7EA6E0;labelBackgroundColor=none;strokeWidth=0;fillColor=none;strokeColor=none;align=left;" parent="1" vertex="1">
          <mxGeometry x="575" y="151.15" width="50" height="20" as="geometry" />
        </mxCell>
        <mxCell id="CfgrEksahoWtLOV5E5xf-124" value="&lt;div style=&quot;font-size: 1px&quot;&gt;&lt;font style=&quot;font-size:8.47px;font-family:Arial;color:#505050;direction:ltr;letter-spacing:0px;line-height:120%;opacity:1&quot;&gt;&lt;br&gt;&lt;/font&gt;&lt;/div&gt;" style="vsdxID=52;edgeStyle=none;startArrow=block;endArrow=block;startSize=5;endSize=5;strokeColor=#7a7a7a;spacingTop=0;spacingBottom=0;spacingLeft=0;spacingRight=0;verticalAlign=middle;html=1;labelBackgroundColor=#ffffff;rounded=0;align=center;exitX=1;exitY=-0.033;exitDx=0;exitDy=0;exitPerimeter=0;horizontal=0;startFill=1;dashed=1;entryX=1.075;entryY=0.979;entryDx=0;entryDy=0;entryPerimeter=0;" parent="1" source="CfgrEksahoWtLOV5E5xf-81" target="CfgrEksahoWtLOV5E5xf-120" edge="1">
          <mxGeometry x="-0.0369" relative="1" as="geometry">
            <mxPoint as="offset" />
            <Array as="points" />
            <mxPoint x="511.5" y="120.35" as="sourcePoint" />
            <mxPoint x="550" y="120" as="targetPoint" />
          </mxGeometry>
        </mxCell>
        <mxCell id="CfgrEksahoWtLOV5E5xf-125" value="&lt;font style=&quot;font-size: 8.4px;&quot; color=&quot;#505050&quot;&gt;Loss&lt;/font&gt;" style="edgeLabel;html=1;align=center;verticalAlign=middle;resizable=0;points=[];labelBackgroundColor=default;" parent="CfgrEksahoWtLOV5E5xf-124" vertex="1" connectable="0">
          <mxGeometry x="-0.119" y="-1" relative="1" as="geometry">
            <mxPoint x="3" y="-2" as="offset" />
          </mxGeometry>
        </mxCell>
        <mxCell id="_FPd9FYrmjJ3LbnLB2mB-30" value="" style="shape=curlyBracket;whiteSpace=wrap;html=1;rounded=1;flipH=1;labelPosition=right;verticalLabelPosition=middle;align=left;verticalAlign=middle;strokeColor=#7A7A7A;" parent="1" vertex="1">
          <mxGeometry x="645" y="75.65" width="20" height="90" as="geometry" />
        </mxCell>
        <mxCell id="_FPd9FYrmjJ3LbnLB2mB-31" value="&lt;span style=&quot;font-family: Arial; font-style: normal; font-variant-ligatures: normal; font-variant-caps: normal; font-weight: 400; letter-spacing: normal; orphans: 2; text-indent: 0px; text-transform: none; widows: 2; word-spacing: 0px; -webkit-text-stroke-width: 0px; text-decoration-thickness: initial; text-decoration-style: initial; text-decoration-color: initial; float: none; display: inline !important;&quot;&gt;&lt;font color=&quot;#505050&quot; style=&quot;font-size: 8.4px;&quot;&gt;\(\mathbf{y}\)&lt;br&gt;&lt;/font&gt;&lt;font color=&quot;#505050&quot; style=&quot;font-size: 8.4px;&quot;&gt;(15 elements)&lt;br&gt;&lt;/font&gt;&lt;/span&gt;" style="text;whiteSpace=wrap;html=1;fontSize=11.2;fontColor=#7EA6E0;labelBackgroundColor=none;strokeWidth=0;fillColor=none;strokeColor=none;align=center;" parent="1" vertex="1">
          <mxGeometry x="650" y="105.8" width="68" height="20" as="geometry" />
        </mxCell>
        <mxCell id="_FPd9FYrmjJ3LbnLB2mB-32" value="&lt;span style=&quot;font-family: Arial; font-style: normal; font-variant-ligatures: normal; font-variant-caps: normal; font-weight: 400; letter-spacing: normal; orphans: 2; text-indent: 0px; text-transform: none; widows: 2; word-spacing: 0px; -webkit-text-stroke-width: 0px; text-decoration-thickness: initial; text-decoration-style: initial; text-decoration-color: initial; float: none; display: inline !important;&quot;&gt;&lt;font color=&quot;#505050&quot; style=&quot;font-size: 8.4px;&quot;&gt;\(1-\sum{\mathbf{y}}\)&lt;/font&gt;&lt;font color=&quot;#505050&quot; style=&quot;font-size: 8.4px;&quot;&gt;&lt;br&gt;&lt;/font&gt;&lt;/span&gt;" style="text;whiteSpace=wrap;html=1;fontSize=11.2;fontColor=#7EA6E0;labelBackgroundColor=none;strokeWidth=0;fillColor=none;strokeColor=none;align=center;" parent="1" vertex="1">
          <mxGeometry x="666" y="160.15" width="36" height="20" as="geometry" />
        </mxCell>
        <mxCell id="gs9fcGPpMaLvLohl0-i_-30" value="&lt;div style=&quot;font-size: 11.2px;&quot;&gt;&lt;p style=&quot;margin: 0px; text-indent: 0px; direction: ltr; font-size: 11.2px;&quot;&gt;&lt;font face=&quot;Arial&quot;&gt;Pathway profiles&lt;/font&gt;&lt;/p&gt;&lt;/div&gt;" style="verticalAlign=middle;align=center;vsdxID=29;fillColor=#ffffff;gradientColor=none;shape=stencil(1VPBEoIgEP0ajjIIpXku+w8mUZlInIVS/z6M0dTi2KHb27dvd+exC2JHU/NWIEqMBX0VnSxsjdgJUSqbWoC0DiGWI3YsNYgK9L0pfNzyUTmim36MHXpft8NpNhZRMniCvKKz1yrZLLQxIWEph4vLwNSW4JR5MQxTdYIZ9Vyg4Rz3Ee+liUBbbqVuluOI4lCJyI2LSsWrVcp0QrQLOg57+fA9zf5qhx1wFm/txHifrOwE3vInbhx4r7SUSvmLmPOhff/dDknQ9caxA9ujd5T/MCx/Ag==);strokeColor=#A5A5A5;spacingTop=-1;spacingBottom=-1;spacingLeft=-1;spacingRight=-1;points=[[0.5,0,0],[0.5,0,0],[1.05,0.5,0],[1,0.5,0]];labelBackgroundColor=none;rounded=0;html=1;whiteSpace=wrap;fontSize=11.2;fontColor=#3885F0;" parent="1" vertex="1">
          <mxGeometry x="79" y="66.15" width="70" height="30" as="geometry" />
        </mxCell>
        <mxCell id="gs9fcGPpMaLvLohl0-i_-32" value="&lt;font style=&quot;font-size: 11.2px;&quot;&gt;Pathway Network&lt;/font&gt;" style="rounded=1;whiteSpace=wrap;html=1;strokeColor=#A5A5A5;fontFamily=Arial;fontColor=#3885F0;" parent="1" vertex="1">
          <mxGeometry x="182.18" y="63.230000000000004" width="120" height="35.85" as="geometry" />
        </mxCell>
        <mxCell id="gs9fcGPpMaLvLohl0-i_-34" value="&lt;div style=&quot;font-size: 1px&quot;&gt;&lt;font style=&quot;font-size:8.47px;font-family:Arial;color:#505050;direction:ltr;letter-spacing:0px;line-height:120%;opacity:1&quot;&gt;&lt;br&gt;&lt;/font&gt;&lt;/div&gt;" style="vsdxID=52;edgeStyle=none;startArrow=none;endArrow=block;startSize=5;endSize=5;strokeColor=#7a7a7a;spacingTop=0;spacingBottom=0;spacingLeft=0;spacingRight=0;verticalAlign=middle;html=1;labelBackgroundColor=#ffffff;rounded=0;align=center;exitX=1.05;exitY=0.5;exitDx=0;exitDy=0;exitPerimeter=0;horizontal=0;entryX=0;entryY=0.5;entryDx=0;entryDy=0;" parent="1" source="gs9fcGPpMaLvLohl0-i_-30" target="gs9fcGPpMaLvLohl0-i_-32" edge="1">
          <mxGeometry x="-0.0369" relative="1" as="geometry">
            <mxPoint as="offset" />
            <Array as="points" />
            <mxPoint x="163" y="171" as="sourcePoint" />
            <mxPoint x="195" y="171" as="targetPoint" />
          </mxGeometry>
        </mxCell>
        <mxCell id="gs9fcGPpMaLvLohl0-i_-36" value="&lt;font style=&quot;font-size: 11.2px;&quot;&gt;GEP Network&lt;/font&gt;" style="rounded=1;whiteSpace=wrap;html=1;strokeColor=#A5A5A5;fontFamily=Arial;fontColor=#3885F0;" parent="1" vertex="1">
          <mxGeometry x="182.18" y="140.57000000000002" width="120" height="35.85" as="geometry" />
        </mxCell>
        <mxCell id="gs9fcGPpMaLvLohl0-i_-38" value="&lt;font color=&quot;#505050&quot; style=&quot;font-size: 8.4px;&quot;&gt;concat.&lt;/font&gt;" style="rounded=1;whiteSpace=wrap;html=1;strokeColor=#A5A5A5;flipV=1;flipH=1;horizontal=0;align=center;verticalAlign=middle;" parent="1" vertex="1">
          <mxGeometry x="302.18" y="62.85000000000001" width="18" height="114" as="geometry" />
        </mxCell>
        <mxCell id="gs9fcGPpMaLvLohl0-i_-39" value="" style="rounded=1;whiteSpace=wrap;html=1;strokeColor=#A5A5A5;" parent="1" vertex="1">
          <mxGeometry x="320.18" y="79.85" width="18" height="80" as="geometry" />
        </mxCell>
        <mxCell id="gs9fcGPpMaLvLohl0-i_-40" value="" style="rounded=1;whiteSpace=wrap;html=1;strokeColor=#A5A5A5;" parent="1" vertex="1">
          <mxGeometry x="338.18" y="91.15" width="18" height="60" as="geometry" />
        </mxCell>
        <mxCell id="WBS0zaE24uSwDYQaIOTp-71" value="" style="shape=image;verticalLabelPosition=bottom;labelBackgroundColor=default;verticalAlign=top;aspect=fixed;imageAspect=0;image=data:image/png,iVBORw0KGgoAAAANSUhEUgAAADoAAAAuCAYAAAB5/AqlAAAAAXNSR0IArs4c6QAAAIRlWElmTU0AKgAAAAgABQESAAMAAAABAAEAAAEaAAUAAAABAAAASgEbAAUAAAABAAAAUgEoAAMAAAABAAIAAIdpAAQAAAABAAAAWgAAAAAAAACQAAAAAQAAAJAAAAABAAOgAQADAAAAAQABAACgAgAEAAAAAQAAADqgAwAEAAAAAQAAAC4AAAAAJPN7IwAAAAlwSFlzAAAWJQAAFiUBSVIk8AAABX1JREFUaAXtmkdPHFkURi/J5BxNEBkjkmxEEhIIESXv/APY8MtYsIMNbBCwwZIlE4TItogCkTM2OdnDuVLN9PR0N4WgqhlmnvToVF39Tn333VT4yP34fT94fM3D9zXDObL9Z0D9Half6nN21q9fv3SyRh8fH/H19dVpds3/ClDALi8v5erqCn8i/v7+EhIS8jdQ3uc4d+PFgbLgi4sLOTw8lMXFRfn27Zusra3J/v6+3N3dKShqvnnzRhISEiQ1NVUyMzN1JiUl6QVwBfxiQA3z3NnZkYWFBRkbG5Px8XGF3djYkLOzMwU1IICNioqSt2/fSl5entTW1kpDQ4MEBwe7VPbFgN7c3Mjx8bGMjIxIX1+f9Pf3y+bmpppnYGCgAvj5+SkEyjJRfXt7W4+Ljo6WiooKVdyV+b4IUNQ8PT2VgYEBaW9vVyV//vypkCkpKVJcXCwfPnyQ2NhYCQgIUHW3trbk+/fvqjjKVlVVCbAo7WrYCurOYezu7srk5KR0dHTI7Oys3N7e6p77+PGjAmRlZUlkZKSgLAMPzD7GnFGV8+bn56spG6btDGsrqPOP8xpvOjc3Jz09PTI6OqoQOTk50tTUJJ8+fVJglHSn1PX1tX6Hz/HG7ob7T9x94wnvO19tlECRiYkJ3ZOYK+rV1dVJa2urZGdn/6miu5/F+5oZtoI6LghIJvsMD4tnxdnU1NRIS0uLoCr78bmG10Dxmufn5+p45ufn1ZtmZGRIeXm5hgsgnS3AEZqL5Olzx2N57tpFOR9lwWv2Fk5oZmZGw0NQUJCUlZWpU4mLi3sUhJnleQ2UdG55eVlWV1flx48fEhoaKtXV1ZrpEPQfGo9Rk3N5BRSzI27ihMiE2JtpaWlSUlKiIcKdh30I3tPnXgHFbFGRXPbk5ETCw8M1jJAcoKwVwyugmO3BwYEsLS0J0PHx8ZKbm6tJgadY+JQL4BVQshpA19fXtfQiISgqKhIckhVmywXyCujR0ZFC8shITk6WgoICzWwe62T0BCb+eA2UUgxl2ZMo6ikhN8Hx4CG2g5KwU0SvrKyo2VJ5JCYmKrCjmnjm5xy2g1J3kihQR1KF4IgAJWd1BH1OSM5lawqISpRWQAKLhyWkGKCOcM8Nbbuie3t7CkrCQH1Jv4fej9XDVlBMlb1JiwQTJlFIT09XZ/SqQIGjLDN6QYQVTDciIsJqTvviKGUZ6R6tEmpPyjBiJy1KM0n8U6+EbaaLE6JlQn7L/iSsABoTE+OxBfJUQOP7toCiJrHz69evmhHhffG0VCvsU6vSPgOSR1tAUZDa8/PnzwqMmu/evdNOArcW7Bi2gBI3qT2Hh4fVbKk9aTa7ip9WQVuaMGCitDOHhoa0+04nPiwsTBvSlZWVllYrzhfs0aAs3mzWggMaHBzUDjwNauJoaWmpNsCIn3QW7BqPBjWzMKoSnA8xs7OzUxUltABHKxNYOu92DtOgKMlkOKtqvI9ieFhu8+Fhu7q65MuXL9rWZD/W19cLtxlwRHZ4WscLaRqUbh0q4THJUak2jLYH+xDFuPGDieJ0pqamNJTQuyWfpfve1tYm9G7NdtcdF/rU56ZAqSF7e3t1r5HF4FCYtD5QEUgcDe0RYPGyvGYPchesublZ76UUFhb+o+58KoDZ75sCJQ6iUnd3tzoiYJkoi9nidJjkssCR7XB3i4YXtxiYZEHG3TCzi3vO40yB4lxQDrOlawcc8CjJYL8BQZbDMe/fv1e4xsZGhfUmoHGx9L8b7hfusW8B5PT0tLYnqTxoanHni71JqMGDGv9PQDVCD4j3ALe6c2CAPPRoCpSTAIWyqMhzlMXDMoAhlWPf0uyiMkFls/FWT2LxH9OgFq/D8tPbkutaTvH/D/x1Bf4AQJbAHbm/wLkAAAAASUVORK5CYII=;" parent="1" vertex="1">
          <mxGeometry x="339.78000000000003" y="113.9" width="15" height="11.9" as="geometry" />
        </mxCell>
        <mxCell id="gs9fcGPpMaLvLohl0-i_-41" value="&lt;font face=&quot;Arial&quot; style=&quot;font-size: 8.4px;&quot; color=&quot;#505050&quot;&gt;sigmoid(·)&lt;/font&gt;" style="text;html=1;strokeColor=none;fillColor=none;align=center;verticalAlign=middle;whiteSpace=wrap;rounded=0;" parent="1" vertex="1">
          <mxGeometry x="338.18" y="71.15" width="45" height="15" as="geometry" />
        </mxCell>
        <mxCell id="gs9fcGPpMaLvLohl0-i_-42" value="&lt;font style=&quot;font-size: 11.2px;&quot;&gt;Deep Neural Network (DNN)&lt;/font&gt;" style="text;html=1;align=center;verticalAlign=middle;whiteSpace=wrap;rounded=0;fillColor=#E6E6E6;fontFamily=Arial;fontColor=#3885F0;" parent="1" vertex="1">
          <mxGeometry x="184.5" y="104.85" width="110" height="30" as="geometry" />
        </mxCell>
        <mxCell id="gs9fcGPpMaLvLohl0-i_-43" value="&lt;font style=&quot;font-size: 8.4px;&quot;&gt;&amp;nbsp;&lt;font color=&quot;#505050&quot; face=&quot;Arial&quot;&gt;GEP-filtering: synthetic vs. TCGA&lt;br&gt;Gene-filtering: signature score vs. cell prop.&lt;/font&gt;&lt;/font&gt;" style="text;html=1;strokeColor=none;fillColor=none;align=left;verticalAlign=middle;whiteSpace=wrap;rounded=0;" parent="1" vertex="1">
          <mxGeometry x="493.5" y="405" width="177.87" height="30" as="geometry" />
        </mxCell>
        <mxCell id="CabPxH1_Ysc7qTLZte5y-30" value="&lt;span style=&quot;font-family: Arial; font-style: normal; font-variant-ligatures: normal; font-variant-caps: normal; font-weight: 400; letter-spacing: normal; orphans: 2; text-indent: 0px; text-transform: none; widows: 2; word-spacing: 0px; -webkit-text-stroke-width: 0px; text-decoration-thickness: initial; text-decoration-style: initial; text-decoration-color: initial; float: none; display: inline !important;&quot;&gt;&lt;font color=&quot;#505050&quot; style=&quot;&quot;&gt;&lt;font style=&quot;font-size: 8px;&quot;&gt;CD8 T(GZMK high)&lt;/font&gt;&lt;br&gt;&lt;/font&gt;&lt;/span&gt;" style="text;whiteSpace=wrap;html=1;fontSize=11.2;fontColor=#7EA6E0;labelBackgroundColor=none;strokeWidth=0;fillColor=none;strokeColor=none;align=left;" parent="1" vertex="1">
          <mxGeometry x="575" y="91.15" width="75" height="20" as="geometry" />
        </mxCell>
        <mxCell id="CabPxH1_Ysc7qTLZte5y-31" value="&lt;span style=&quot;font-family: Arial; font-style: normal; font-variant-ligatures: normal; font-variant-caps: normal; font-weight: 400; letter-spacing: normal; orphans: 2; text-indent: 0px; text-transform: none; widows: 2; word-spacing: 0px; -webkit-text-stroke-width: 0px; text-decoration-thickness: initial; text-decoration-style: initial; text-decoration-color: initial; float: none; display: inline !important;&quot;&gt;&lt;font color=&quot;#505050&quot; style=&quot;&quot;&gt;&lt;font style=&quot;font-size: 8px;&quot;&gt;Non-Plasma B Cells&lt;/font&gt;&lt;br&gt;&lt;/font&gt;&lt;/span&gt;" style="text;whiteSpace=wrap;html=1;fontSize=11.2;fontColor=#7EA6E0;labelBackgroundColor=none;strokeWidth=0;fillColor=none;strokeColor=none;align=left;" parent="1" vertex="1">
          <mxGeometry x="575" y="71.15" width="75" height="20" as="geometry" />
        </mxCell>
        <mxCell id="CabPxH1_Ysc7qTLZte5y-32" value="&lt;span style=&quot;font-family: Arial; font-style: normal; font-variant-ligatures: normal; font-variant-caps: normal; font-weight: 400; letter-spacing: normal; orphans: 2; text-indent: 0px; text-transform: none; widows: 2; word-spacing: 0px; -webkit-text-stroke-width: 0px; text-decoration-thickness: initial; text-decoration-style: initial; text-decoration-color: initial; float: none; display: inline !important;&quot;&gt;&lt;font color=&quot;#505050&quot; style=&quot;&quot;&gt;&lt;font style=&quot;font-size: 8px;&quot;&gt;CD8 T effector&lt;/font&gt;&lt;br&gt;&lt;/font&gt;&lt;/span&gt;" style="text;whiteSpace=wrap;html=1;fontSize=11.2;fontColor=#7EA6E0;labelBackgroundColor=none;strokeWidth=0;fillColor=none;strokeColor=none;align=left;" parent="1" vertex="1">
          <mxGeometry x="575" y="101" width="75" height="20" as="geometry" />
        </mxCell>
        <mxCell id="QHCt3Q6QiyxfTDz7Hf8P-31" value="&lt;font style=&quot;font-size: 8.4px;&quot; color=&quot;#505050&quot;&gt;~320K cells&lt;/font&gt;" style="text;strokeColor=none;align=center;fillColor=none;html=1;verticalAlign=middle;whiteSpace=wrap;rounded=0;" parent="1" vertex="1">
          <mxGeometry x="146" y="319.61" width="54" height="20" as="geometry" />
        </mxCell>
        <mxCell id="pIZrWOzv6jzL_OTN6Fza-30" value="&lt;span style=&quot;font-family: Arial; font-style: normal; font-variant-ligatures: normal; font-variant-caps: normal; font-weight: 400; letter-spacing: normal; orphans: 2; text-indent: 0px; text-transform: none; widows: 2; word-spacing: 0px; -webkit-text-stroke-width: 0px; text-decoration-thickness: initial; text-decoration-style: initial; text-decoration-color: initial; float: none; display: inline !important;&quot;&gt;&lt;font color=&quot;#505050&quot; style=&quot;&quot;&gt;&lt;span style=&quot;font-size: 8px;&quot;&gt;\(\vdots\)&lt;/span&gt;&lt;br&gt;&lt;/font&gt;&lt;/span&gt;" style="text;whiteSpace=wrap;html=1;fontSize=11.2;fontColor=#7EA6E0;labelBackgroundColor=none;strokeWidth=0;fillColor=none;strokeColor=none;align=left;" vertex="1" parent="1">
          <mxGeometry x="464.5" y="115.15" width="10" height="20" as="geometry" />
        </mxCell>
        <mxCell id="pIZrWOzv6jzL_OTN6Fza-31" value="&lt;span style=&quot;font-family: Arial; font-style: normal; font-variant-ligatures: normal; font-variant-caps: normal; font-weight: 400; letter-spacing: normal; orphans: 2; text-indent: 0px; text-transform: none; widows: 2; word-spacing: 0px; -webkit-text-stroke-width: 0px; text-decoration-thickness: initial; text-decoration-style: initial; text-decoration-color: initial; float: none; display: inline !important;&quot;&gt;&lt;font color=&quot;#505050&quot; style=&quot;&quot;&gt;&lt;span style=&quot;font-size: 8px;&quot;&gt;\(\vdots\)&lt;/span&gt;&lt;br&gt;&lt;/font&gt;&lt;/span&gt;" style="text;whiteSpace=wrap;html=1;fontSize=11.2;fontColor=#7EA6E0;labelBackgroundColor=none;strokeWidth=0;fillColor=none;strokeColor=none;align=left;" vertex="1" parent="1">
          <mxGeometry x="553" y="115.15" width="10" height="20" as="geometry" />
        </mxCell>
        <mxCell id="2" value="Connector" parent="0" />
        <mxCell id="22" value="&lt;div style=&quot;font-size: 1px&quot;&gt;&lt;font style=&quot;font-size:8.47px;font-family:Arial;color:#505050;direction:ltr;letter-spacing:0px;line-height:120%;opacity:1&quot;&gt;&lt;br&gt;&lt;/font&gt;&lt;/div&gt;" style="vsdxID=55;edgeStyle=none;startArrow=none;endArrow=block;startSize=5;endSize=5;strokeColor=#7a7a7a;spacingTop=0;spacingBottom=0;spacingLeft=0;spacingRight=0;verticalAlign=middle;html=1;labelBackgroundColor=#ffffff;rounded=0;align=center;exitX=1.03;exitY=0.5;exitDx=0;exitDy=0;exitPerimeter=0;entryX=-0.005;entryY=0.496;entryDx=0;entryDy=0;entryPerimeter=0;" parent="2" source="21" target="9" edge="1">
          <mxGeometry x="-0.4001" relative="1" as="geometry">
            <mxPoint as="offset" />
            <Array as="points" />
          </mxGeometry>
        </mxCell>
        <mxCell id="WBS0zaE24uSwDYQaIOTp-31" value="&lt;span style=&quot;color: rgb(80, 80, 80); font-family: Arial; font-size: 8.4px;&quot;&gt;GEP &lt;br style=&quot;font-size: 8.4px;&quot;&gt;Sampling&lt;/span&gt;" style="edgeLabel;html=1;align=center;verticalAlign=middle;resizable=0;points=[];fontSize=8.4;labelBackgroundColor=default;" parent="22" connectable="0" vertex="1">
          <mxGeometry x="-0.093" relative="1" as="geometry">
            <mxPoint x="-1" y="-1" as="offset" />
          </mxGeometry>
        </mxCell>
        <mxCell id="23" value="&lt;div style=&quot;font-size: 1px&quot;&gt;&lt;font style=&quot;font-size:8.47px;font-family:Arial;color:#505050;direction:ltr;letter-spacing:0px;line-height:120%;opacity:1&quot;&gt;&lt;br&gt;&lt;/font&gt;&lt;/div&gt;" style="vsdxID=52;edgeStyle=none;startArrow=none;endArrow=block;startSize=5;endSize=5;strokeColor=#7a7a7a;spacingTop=0;spacingBottom=0;spacingLeft=0;spacingRight=0;verticalAlign=middle;html=1;labelBackgroundColor=#ffffff;rounded=0;align=center;exitX=1;exitY=0.5;exitDx=0;exitDy=0;horizontal=0;entryX=1;entryY=1.1;entryDx=0;entryDy=0;entryPerimeter=0;" parent="2" source="gs9fcGPpMaLvLohl0-i_-40" target="CfgrEksahoWtLOV5E5xf-81" edge="1">
          <mxGeometry x="-0.0369" relative="1" as="geometry">
            <mxPoint as="offset" />
            <Array as="points" />
            <mxPoint x="370.49199999999996" y="118.74599999999987" as="sourcePoint" />
            <mxPoint x="473" y="120" as="targetPoint" />
          </mxGeometry>
        </mxCell>
        <mxCell id="CfgrEksahoWtLOV5E5xf-72" value="&lt;font color=&quot;#505050&quot; style=&quot;font-size: 8.4px;&quot;&gt;Independently of &lt;br&gt;one another&lt;/font&gt;" style="edgeLabel;html=1;align=center;verticalAlign=middle;resizable=0;points=[];labelBackgroundColor=default;" parent="23" vertex="1" connectable="0">
          <mxGeometry x="-0.0945" y="1" relative="1" as="geometry">
            <mxPoint as="offset" />
          </mxGeometry>
        </mxCell>
        <mxCell id="25" value="&lt;div style=&quot;font-size: 1px&quot;&gt;&lt;font style=&quot;font-size:8.47px;font-family:Arial;color:#505050;direction:ltr;letter-spacing:0px;line-height:120%;opacity:1&quot;&gt;&lt;br&gt;&lt;/font&gt;&lt;/div&gt;" style="vsdxID=46;edgeStyle=none;startArrow=none;endArrow=block;startSize=5;endSize=5;strokeColor=#7a7a7a;spacingTop=0;spacingBottom=0;spacingLeft=0;spacingRight=0;verticalAlign=middle;html=1;labelBackgroundColor=#ffffff;rounded=0;align=center;entryX=-0.005;entryY=0.495;entryDx=0;entryDy=0;entryPerimeter=0;" parent="2" source="5" target="10" edge="1">
          <mxGeometry x="-0.6536" y="4" relative="1" as="geometry">
            <mxPoint as="offset" />
            <Array as="points" />
          </mxGeometry>
        </mxCell>
        <mxCell id="WBS0zaE24uSwDYQaIOTp-46" value="&lt;span style=&quot;color: rgb(80, 80, 80); font-family: Arial; font-size: 8.4px;&quot;&gt;&lt;font style=&quot;font-size: 8.4px;&quot;&gt;Cell Prop. &lt;br style=&quot;font-size: 8.4px;&quot;&gt;Sampling&lt;/font&gt;&lt;/span&gt;" style="edgeLabel;html=1;align=center;verticalAlign=middle;resizable=0;points=[];fontSize=8.4;labelBackgroundColor=default;" parent="25" connectable="0" vertex="1">
          <mxGeometry x="-0.4144" relative="1" as="geometry">
            <mxPoint x="10" y="-1" as="offset" />
          </mxGeometry>
        </mxCell>
        <mxCell id="27" value="&lt;div style=&quot;font-size: 1px&quot;&gt;&lt;p style=&quot;align:left;margin-left:0;margin-right:0;margin-top:0px;margin-bottom:0px;text-indent:0;valign:middle;direction:ltr;&quot;&gt;&lt;br&gt;&lt;/p&gt;&lt;/div&gt;" style="vsdxID=11;edgeStyle=none;startArrow=none;endArrow=block;startSize=5;endSize=5;strokeColor=#7a7a7a;spacingTop=0;spacingBottom=0;spacingLeft=0;spacingRight=0;verticalAlign=middle;html=1;labelBackgroundColor=#ffffff;rounded=0;align=left;exitX=0.5;exitY=1.0222222222222221;exitDx=0;exitDy=0;exitPerimeter=0;" parent="2" source="3" target="21" edge="1">
          <mxGeometry x="-0.3677" relative="1" as="geometry">
            <mxPoint as="offset" />
            <Array as="points" />
          </mxGeometry>
        </mxCell>
        <mxCell id="YeWZgikvpRvOC1Chu02z-31" value="&lt;p style=&quot;font-size: 8.4px; text-align: left; margin: 0px; direction: ltr;&quot;&gt;&lt;font style=&quot;font-size: 8.4px; font-family: Arial; color: rgb(80, 80, 80); direction: ltr; letter-spacing: 0px; line-height: 10.164px; opacity: 1;&quot;&gt;Batch effect correction&lt;br style=&quot;font-size: 8.4px;&quot;&gt;&lt;/font&gt;&lt;/p&gt;&lt;p style=&quot;font-size: 8.4px; text-align: left; margin: 0px; direction: ltr;&quot;&gt;&lt;font style=&quot;font-size: 8.4px; font-family: Arial; color: rgb(80, 80, 80); direction: ltr; letter-spacing: 0px; line-height: 10.164px; opacity: 1;&quot;&gt;Clustering&lt;br style=&quot;font-size: 8.4px;&quot;&gt;&lt;/font&gt;&lt;/p&gt;&lt;p style=&quot;font-size: 8.4px; text-align: left; margin: 0px; direction: ltr;&quot;&gt;&lt;font style=&quot;font-size: 8.4px; font-family: Arial; color: rgb(80, 80, 80); direction: ltr; letter-spacing: 0px; line-height: 10.164px; opacity: 1;&quot;&gt;&lt;span style=&quot;font-size: 8.4px;&quot;&gt;&lt;i style=&quot;font-size: 8.4px;&quot;&gt;De novo&lt;/i&gt;&lt;/span&gt;&lt;i style=&quot;font-size: 8.4px;&quot;&gt;&amp;nbsp;&lt;/i&gt;&lt;/font&gt;&lt;font style=&quot;font-size: 8.4px; font-family: Arial; color: rgb(80, 80, 80); direction: ltr; letter-spacing: 0px; line-height: 10.164px; opacity: 1;&quot;&gt;annotation&lt;/font&gt;&lt;/p&gt;" style="edgeLabel;html=1;align=center;verticalAlign=middle;resizable=0;points=[];fontSize=8.4;labelBackgroundColor=default;" parent="27" connectable="0" vertex="1">
          <mxGeometry x="-0.3825" y="1" relative="1" as="geometry">
            <mxPoint y="2" as="offset" />
          </mxGeometry>
        </mxCell>
        <mxCell id="28" value="&lt;div style=&quot;font-size: 8.4px;&quot;&gt;&lt;font style=&quot;font-size: 8.4px; font-family: Arial; color: rgb(80, 80, 80); direction: ltr; letter-spacing: 0px; line-height: 120%; opacity: 1;&quot;&gt;Reference GEPs&lt;br style=&quot;font-size: 8.4px;&quot;&gt;&lt;/font&gt;&lt;/div&gt;" style="vsdxID=24;edgeStyle=none;startArrow=none;endArrow=block;startSize=5;endSize=5;strokeColor=#7a7a7a;spacingTop=0;spacingBottom=0;spacingLeft=0;spacingRight=0;verticalAlign=middle;html=1;labelBackgroundColor=default;rounded=0;align=center;exitX=0.491;exitY=0.972;exitDx=0;exitDy=0;exitPerimeter=0;fontSize=8.4;entryX=0.5;entryY=0;entryDx=0;entryDy=0;" parent="2" source="15" target="0ngYmaXCJgMvarBHXimJ-31" edge="1">
          <mxGeometry x="-0.0493" relative="1" as="geometry">
            <mxPoint as="offset" />
            <Array as="points" />
            <mxPoint x="537" y="362" as="targetPoint" />
          </mxGeometry>
        </mxCell>
        <mxCell id="29" style="vsdxID=31;edgeStyle=none;startArrow=none;endArrow=block;startSize=5;endSize=5;strokeColor=#7a7a7a;spacingTop=0;spacingBottom=0;spacingLeft=0;spacingRight=0;verticalAlign=middle;html=1;labelBackgroundColor=#ffffff;rounded=0;exitX=1;exitY=0.5;exitDx=0;exitDy=0;entryX=-0.005;entryY=0.491;entryDx=0;entryDy=0;entryPerimeter=0;" parent="2" source="0ngYmaXCJgMvarBHXimJ-31" target="13" edge="1">
          <mxGeometry relative="1" as="geometry">
            <mxPoint x="-13" y="-1" as="offset" />
            <Array as="points" />
            <mxPoint x="571.6199999999999" y="384.09000000000003" as="sourcePoint" />
          </mxGeometry>
        </mxCell>
        <mxCell id="30" style="vsdxID=25;edgeStyle=none;startArrow=none;endArrow=block;startSize=5;endSize=5;strokeColor=#7a7a7a;spacingTop=0;spacingBottom=0;spacingLeft=0;spacingRight=0;verticalAlign=middle;html=1;labelBackgroundColor=#ffffff;rounded=0;exitX=1;exitY=0.5;exitDx=0;exitDy=0;exitPerimeter=0;entryX=0;entryY=0.5;entryDx=0;entryDy=0;" parent="2" source="WBS0zaE24uSwDYQaIOTp-60" target="0ngYmaXCJgMvarBHXimJ-31" edge="1">
          <mxGeometry relative="1" as="geometry">
            <mxPoint x="-1" as="offset" />
            <Array as="points" />
            <mxPoint x="436.5" y="378.9473333333333" as="sourcePoint" />
            <mxPoint x="503.0563099999997" y="384.09000000000003" as="targetPoint" />
          </mxGeometry>
        </mxCell>
      </root>
    </mxGraphModel>
  </diagram>
</mxfile>
